# Medium-poly Staunton-style piece
v 0.0 0 0.0
v 0.4 0 0.0
v 0.5 0.3 0.0
v 0.32 0.9 0.0
v 0.0 1.25 0.0
v 0.0 0 0.0
v 0.3991435692954414 0 0.026161251692057227
v 0.49892946161930174 0.3 0.03270156461507153
v 0.31931485543635313 0.9 0.02092900135364578
v 0.0 1.25 0.0
v 0.0 0 0.0
v 0.39657794454952416 0 0.052210476888020635
v 0.4957224306869052 0.3 0.06526309611002579
v 0.31726235563961935 0.9 0.0417683815104165
v 0.0 1.25 0.0
v 0.0 0 0.0
v 0.3923141121612922 0 0.0780361288064513
v 0.4903926402016152 0.3 0.09754516100806412
v 0.31385128972903376 0.9 0.06242890304516104
v 0.0 1.25 0.0
v 0.0 0 0.0
v 0.38637033051562736 0 0.1035276180410083
v 0.48296291314453416 0.3 0.12940952255126037
v 0.3090962644125019 0.9 0.08282209443280664
v 0.0 1.25 0.0
v 0.0 0 0.0
v 0.3787720517980423 0 0.12857578612126463
v 0.47346506474755284 0.3 0.1607197326515808
v 0.30301764143843385 0.9 0.10286062889701171
v 0.0 1.25 0.0
v 0.0 0 0.0
v 0.36955181300451473 0 0.15307337294603593
v 0.46193976625564337 0.3 0.1913417161825449
v 0.2956414504036118 0.9 0.12245869835682874
v 0.0 1.25 0.0
v 0.0 0 0.0
v 0.35874909661307536 0 0.1769154760876005
v 0.4484363707663442 0.3 0.22114434510950062
v 0.28699927729046026 0.9 0.1415323808700804
v 0.0 1.25 0.0
v 0.0 0 0.0
v 0.3464101615137755 0 0.19999999999999998
v 0.43301270189221935 0.3 0.24999999999999997
v 0.27712812921102037 0.9 0.15999999999999998
v 0.0 1.25 0.0
v 0.0 0 0.0
v 0.3325878449210181 0 0.22222809320784087
v 0.4157348061512726 0.3 0.2777851165098011
v 0.2660702759368145 0.9 0.1777824745662727
v 0.0 1.25 0.0
v 0.0 0 0.0
v 0.31734133611649407 0 0.24350457160348826
v 0.3966766701456176 0.3 0.30438071450436033
v 0.2538730688931953 0.9 0.19480365728279062
v 0.0 1.25 0.0
v 0.0 0 0.0
v 0.30073592299159096 0 0.26373832604002756
v 0.3759199037394887 0.3 0.3296729075500344
v 0.24058873839327277 0.9 0.21099066083202203
v 0.0 1.25 0.0
v 0.0 0 0.0
v 0.28284271247461906 0 0.282842712474619
v 0.3535533905932738 0.3 0.35355339059327373
v 0.22627416997969524 0.9 0.22627416997969518
v 0.0 1.25 0.0
v 0.0 0 0.0
v 0.26373832604002756 0 0.30073592299159096
v 0.3296729075500344 0.3 0.3759199037394887
v 0.21099066083202203 0.9 0.24058873839327277
v 0.0 1.25 0.0
v 0.0 0 0.0
v 0.24350457160348826 0 0.31734133611649407
v 0.30438071450436033 0.3 0.3966766701456176
v 0.19480365728279062 0.9 0.2538730688931953
v 0.0 1.25 0.0
v 0.0 0 0.0
v 0.22222809320784098 0 0.33258784492101806
v 0.2777851165098012 0.3 0.41573480615127256
v 0.17778247456627277 0.9 0.2660702759368144
v 0.0 1.25 0.0
v 0.0 0 0.0
v 0.20000000000000007 0 0.34641016151377546
v 0.25000000000000006 0.3 0.4330127018922193
v 0.16000000000000003 0.9 0.27712812921102037
v 0.0 1.25 0.0
v 0.0 0 0.0
v 0.1769154760876005 0 0.35874909661307536
v 0.22114434510950062 0.3 0.4484363707663442
v 0.1415323808700804 0.9 0.28699927729046026
v 0.0 1.25 0.0
v 0.0 0 0.0
v 0.15307337294603596 0 0.36955181300451473
v 0.19134171618254492 0.3 0.46193976625564337
v 0.12245869835682875 0.9 0.2956414504036118
v 0.0 1.25 0.0
v 0.0 0 0.0
v 0.1285757861212647 0 0.37877205179804224
v 0.16071973265158085 0.3 0.4734650647475528
v 0.10286062889701175 0.9 0.3030176414384338
v 0.0 1.25 0.0
v 0.0 0 0.0
v 0.1035276180410083 0 0.38637033051562736
v 0.12940952255126037 0.3 0.48296291314453416
v 0.08282209443280664 0.9 0.3090962644125019
v 0.0 1.25 0.0
v 0.0 0 0.0
v 0.07803612880645133 0 0.3923141121612922
v 0.09754516100806417 0.3 0.4903926402016152
v 0.06242890304516107 0.9 0.31385128972903376
v 0.0 1.25 0.0
v 0.0 0 0.0
v 0.05221047688802069 0 0.39657794454952416
v 0.06526309611002586 0.3 0.4957224306869052
v 0.04176838151041655 0.9 0.31726235563961935
v 0.0 1.25 0.0
v 0.0 0 0.0
v 0.02616125169205731 0 0.3991435692954414
v 0.032701564615071635 0.3 0.49892946161930174
v 0.020929001353645848 0.9 0.31931485543635313
v 0.0 1.25 0.0
v 0.0 0 0.0
v 2.4492935982947065e-17 0 0.4
v 3.061616997868383e-17 0.3 0.5
v 1.959434878635765e-17 0.9 0.32
v 0.0 1.25 0.0
v -0.0 0 0.0
v -0.02616125169205726 0 0.3991435692954414
v -0.03270156461507157 0.3 0.49892946161930174
v -0.020929001353645806 0.9 0.31931485543635313
v -0.0 1.25 0.0
v -0.0 0 0.0
v -0.05221047688802064 0 0.39657794454952416
v -0.0652630961100258 0.3 0.4957224306869052
v -0.041768381510416515 0.9 0.31726235563961935
v -0.0 1.25 0.0
v -0.0 0 0.0
v -0.07803612880645128 0 0.3923141121612922
v -0.0975451610080641 0.3 0.4903926402016152
v -0.06242890304516102 0.9 0.31385128972903376
v -0.0 1.25 0.0
v -0.0 0 0.0
v -0.10352761804100825 0 0.38637033051562736
v -0.12940952255126031 0.3 0.48296291314453416
v -0.08282209443280661 0.9 0.3090962644125019
v -0.0 1.25 0.0
v -0.0 0 0.0
v -0.12857578612126463 0 0.3787720517980423
v -0.1607197326515808 0.3 0.47346506474755284
v -0.10286062889701171 0.9 0.30301764143843385
v -0.0 1.25 0.0
v -0.0 0 0.0
v -0.15307337294603582 0 0.3695518130045148
v -0.19134171618254475 0.3 0.4619397662556434
v -0.12245869835682864 0.9 0.2956414504036118
v -0.0 1.25 0.0
v -0.0 0 0.0
v -0.17691547608760047 0 0.35874909661307536
v -0.22114434510950057 0.3 0.4484363707663442
v -0.14153238087008035 0.9 0.28699927729046026
v -0.0 1.25 0.0
v -0.0 0 0.0
v -0.19999999999999993 0 0.3464101615137755
v -0.2499999999999999 0.3 0.43301270189221935
v -0.15999999999999992 0.9 0.27712812921102037
v -0.0 1.25 0.0
v -0.0 0 0.0
v -0.22222809320784093 0 0.33258784492101806
v -0.27778511650980114 0.3 0.41573480615127256
v -0.17778247456627275 0.9 0.2660702759368144
v -0.0 1.25 0.0
v -0.0 0 0.0
v -0.24350457160348826 0 0.31734133611649407
v -0.30438071450436033 0.3 0.3966766701456176
v -0.19480365728279062 0.9 0.2538730688931953
v -0.0 1.25 0.0
v -0.0 0 0.0
v -0.26373832604002756 0 0.30073592299159096
v -0.3296729075500344 0.3 0.3759199037394887
v -0.21099066083202203 0.9 0.24058873839327277
v -0.0 1.25 0.0
v -0.0 0 0.0
v -0.282842712474619 0 0.28284271247461906
v -0.35355339059327373 0.3 0.3535533905932738
v -0.22627416997969518 0.9 0.22627416997969524
v -0.0 1.25 0.0
v -0.0 0 0.0
v -0.3007359229915909 0 0.2637383260400276
v -0.37591990373948864 0.3 0.3296729075500345
v -0.24058873839327274 0.9 0.21099066083202206
v -0.0 1.25 0.0
v -0.0 0 0.0
v -0.31734133611649407 0 0.24350457160348837
v -0.3966766701456175 0.3 0.30438071450436044
v -0.2538730688931952 0.9 0.1948036572827907
v -0.0 1.25 0.0
v -0.0 0 0.0
v -0.332587844921018 0 0.222228093207841
v -0.4157348061512725 0.3 0.27778511650980126
v -0.2660702759368144 0.9 0.1777824745662728
v -0.0 1.25 0.0
v -0.0 0 0.0
v -0.3464101615137755 0 0.19999999999999998
v -0.43301270189221935 0.3 0.24999999999999997
v -0.27712812921102037 0.9 0.15999999999999998
v -0.0 1.25 0.0
v -0.0 0 0.0
v -0.3587490966130753 0 0.1769154760876007
v -0.4484363707663441 0.3 0.22114434510950085
v -0.2869992772904602 0.9 0.14153238087008055
v -0.0 1.25 0.0
v -0.0 0 0.0
v -0.36955181300451473 0 0.15307337294603596
v -0.46193976625564337 0.3 0.19134171618254495
v -0.2956414504036118 0.9 0.12245869835682877
v -0.0 1.25 0.0
v -0.0 0 0.0
v -0.37877205179804224 0 0.12857578612126472
v -0.4734650647475528 0.3 0.16071973265158088
v -0.3030176414384338 0.9 0.10286062889701177
v -0.0 1.25 0.0
v -0.0 0 0.0
v -0.3863703305156273 0 0.1035276180410084
v -0.4829629131445341 0.3 0.1294095225512605
v -0.3090962644125018 0.9 0.08282209443280673
v -0.0 1.25 0.0
v -0.0 0 0.0
v -0.3923141121612922 0 0.07803612880645128
v -0.4903926402016152 0.3 0.09754516100806408
v -0.31385128972903376 0.9 0.062428903045161015
v -0.0 1.25 0.0
v -0.0 0 0.0
v -0.39657794454952416 0 0.0522104768880208
v -0.4957224306869052 0.3 0.065263096110026
v -0.31726235563961935 0.9 0.04176838151041664
v -0.0 1.25 0.0
v -0.0 0 0.0
v -0.3991435692954414 0 0.026161251692057248
v -0.49892946161930174 0.3 0.03270156461507156
v -0.31931485543635313 0.9 0.0209290013536458
v -0.0 1.25 0.0
v -0.0 0 0.0
v -0.4 0 4.898587196589413e-17
v -0.5 0.3 6.123233995736766e-17
v -0.32 0.9 3.91886975727153e-17
v -0.0 1.25 0.0
v -0.0 0 -0.0
v -0.3991435692954414 0 -0.026161251692057148
v -0.49892946161930174 0.3 -0.032701564615071434
v -0.31931485543635313 0.9 -0.02092900135364572
v -0.0 1.25 -0.0
v -0.0 0 -0.0
v -0.39657794454952416 0 -0.05221047688802071
v -0.4957224306869052 0.3 -0.06526309611002588
v -0.31726235563961935 0.9 -0.04176838151041656
v -0.0 1.25 -0.0
v -0.0 0 -0.0
v -0.39231411216129225 0 -0.07803612880645117
v -0.49039264020161527 0.3 -0.09754516100806396
v -0.31385128972903376 0.9 -0.06242890304516093
v -0.0 1.25 -0.0
v -0.0 0 -0.0
v -0.38637033051562736 0 -0.10352761804100832
v -0.48296291314453416 0.3 -0.1294095225512604
v -0.3090962644125019 0.9 -0.08282209443280665
v -0.0 1.25 -0.0
v -0.0 0 -0.0
v -0.3787720517980423 0 -0.1285757861212646
v -0.47346506474755284 0.3 -0.16071973265158077
v -0.30301764143843385 0.9 -0.1028606288970117
v -0.0 1.25 -0.0
v -0.0 0 -0.0
v -0.3695518130045148 0 -0.15307337294603587
v -0.4619397662556434 0.3 -0.19134171618254484
v -0.2956414504036118 0.9 -0.1224586983568287
v -0.0 1.25 -0.0
v -0.0 0 -0.0
v -0.3587490966130753 0 -0.1769154760876006
v -0.44843637076634413 0.3 -0.22114434510950073
v -0.28699927729046026 0.9 -0.14153238087008047
v -0.0 1.25 -0.0
v -0.0 0 -0.0
v -0.34641016151377557 0 -0.1999999999999999
v -0.4330127018922194 0.3 -0.24999999999999986
v -0.2771281292110204 0.9 -0.15999999999999992
v -0.0 1.25 -0.0
v -0.0 0 -0.0
v -0.3325878449210182 0 -0.2222280932078408
v -0.41573480615127273 0.3 -0.277785116509801
v -0.26607027593681454 0.9 -0.17778247456627264
v -0.0 1.25 -0.0
v -0.0 0 -0.0
v -0.31734133611649407 0 -0.24350457160348826
v -0.3966766701456176 0.3 -0.30438071450436033
v -0.2538730688931953 0.9 -0.19480365728279062
v -0.0 1.25 -0.0
v -0.0 0 -0.0
v -0.300735922991591 0 -0.26373832604002756
v -0.37591990373948875 0.3 -0.3296729075500344
v -0.2405887383932728 0.9 -0.21099066083202203
v -0.0 1.25 -0.0
v -0.0 0 -0.0
v -0.2828427124746192 0 -0.28284271247461884
v -0.35355339059327395 0.3 -0.35355339059327356
v -0.22627416997969532 0.9 -0.22627416997969507
v -0.0 1.25 -0.0
v -0.0 0 -0.0
v -0.2637383260400276 0 -0.3007359229915909
v -0.32967290755003453 0.3 -0.37591990373948864
v -0.21099066083202211 0.9 -0.24058873839327274
v -0.0 1.25 -0.0
v -0.0 0 -0.0
v -0.24350457160348837 0 -0.317341336116494
v -0.30438071450436044 0.3 -0.39667667014561747
v -0.1948036572827907 0.9 -0.25387306889319516
v -0.0 1.25 -0.0
v -0.0 0 -0.0
v -0.22222809320784087 0 -0.3325878449210181
v -0.2777851165098011 0.3 -0.4157348061512726
v -0.1777824745662727 0.9 -0.2660702759368145
v -0.0 1.25 -0.0
v -0.0 0 -0.0
v -0.20000000000000018 0 -0.34641016151377535
v -0.2500000000000002 0.3 -0.4330127018922192
v -0.16000000000000014 0.9 -0.2771281292110203
v -0.0 1.25 -0.0
v -0.0 0 -0.0
v -0.17691547608760055 0 -0.3587490966130753
v -0.22114434510950068 0.3 -0.44843637076634413
v -0.14153238087008044 0.9 -0.28699927729046026
v -0.0 1.25 -0.0
v -0.0 0 -0.0
v -0.15307337294603582 0 -0.3695518130045148
v -0.19134171618254475 0.3 -0.4619397662556434
v -0.12245869835682864 0.9 -0.2956414504036118
v -0.0 1.25 -0.0
v -0.0 0 -0.0
v -0.12857578612126472 0 -0.37877205179804224
v -0.1607197326515809 0.3 -0.4734650647475528
v -0.10286062889701178 0.9 -0.3030176414384338
v -0.0 1.25 -0.0
v -0.0 0 -0.0
v -0.10352761804100825 0 -0.38637033051562736
v -0.12940952255126031 0.3 -0.48296291314453416
v -0.08282209443280661 0.9 -0.3090962644125019
v -0.0 1.25 -0.0
v -0.0 0 -0.0
v -0.07803612880645147 0 -0.39231411216129214
v -0.09754516100806433 0.3 -0.49039264020161516
v -0.062428903045161174 0.9 -0.3138512897290337
v -0.0 1.25 -0.0
v -0.0 0 -0.0
v -0.052210476888020656 0 -0.39657794454952416
v -0.06526309611002581 0.3 -0.4957224306869052
v -0.04176838151041652 0.9 -0.31726235563961935
v -0.0 1.25 -0.0
v -0.0 0 -0.0
v -0.026161251692057092 0 -0.3991435692954414
v -0.032701564615071364 0.3 -0.49892946161930174
v -0.020929001353645674 0.9 -0.31931485543635313
v -0.0 1.25 -0.0
v -0.0 0 -0.0
v -7.347880794884119e-17 0 -0.4
v -9.184850993605148e-17 0.3 -0.5
v -5.878304635907295e-17 0.9 -0.32
v -0.0 1.25 -0.0
v 0.0 0 -0.0
v 0.02616125169205695 0 -0.3991435692954415
v 0.032701564615071184 0.3 -0.4989294616193018
v 0.020929001353645556 0.9 -0.31931485543635313
v 0.0 1.25 -0.0
v 0.0 0 -0.0
v 0.05221047688802051 0 -0.3965779445495242
v 0.06526309611002563 0.3 -0.49572243068690525
v 0.041768381510416404 0.9 -0.31726235563961935
v 0.0 1.25 -0.0
v 0.0 0 -0.0
v 0.07803612880645133 0 -0.3923141121612922
v 0.09754516100806415 0.3 -0.4903926402016152
v 0.062428903045161056 0.9 -0.31385128972903376
v 0.0 1.25 -0.0
v 0.0 0 -0.0
v 0.10352761804100813 0 -0.3863703305156274
v 0.12940952255126015 0.3 -0.4829629131445342
v 0.0828220944328065 0.9 -0.3090962644125019
v 0.0 1.25 -0.0
v 0.0 0 -0.0
v 0.1285757861212646 0 -0.3787720517980423
v 0.16071973265158074 0.3 -0.47346506474755284
v 0.10286062889701167 0.9 -0.30301764143843385
v 0.0 1.25 -0.0
v 0.0 0 -0.0
v 0.15307337294603568 0 -0.3695518130045148
v 0.19134171618254459 0.3 -0.4619397662556435
v 0.12245869835682854 0.9 -0.29564145040361184
v 0.0 1.25 -0.0
v 0.0 0 -0.0
v 0.17691547608760042 0 -0.3587490966130754
v 0.2211443451095005 0.3 -0.44843637076634424
v 0.14153238087008033 0.9 -0.2869992772904603
v 0.0 1.25 -0.0
v 0.0 0 -0.0
v 0.20000000000000007 0 -0.34641016151377546
v 0.25000000000000006 0.3 -0.4330127018922193
v 0.16000000000000003 0.9 -0.27712812921102037
v 0.0 1.25 -0.0
v 0.0 0 -0.0
v 0.22222809320784076 0 -0.3325878449210182
v 0.2777851165098009 0.3 -0.41573480615127273
v 0.17778247456627258 0.9 -0.26607027593681454
v 0.0 1.25 -0.0
v 0.0 0 -0.0
v 0.24350457160348796 0 -0.3173413361164943
v 0.30438071450435994 0.3 -0.39667667014561786
v 0.19480365728279037 0.9 -0.25387306889319544
v 0.0 1.25 -0.0
v 0.0 0 -0.0
v 0.2637383260400276 0 -0.3007359229915909
v 0.32967290755003453 0.3 -0.3759199037394886
v 0.21099066083202211 0.9 -0.2405887383932727
v 0.0 1.25 -0.0
v 0.0 0 -0.0
v 0.28284271247461895 0 -0.28284271247461906
v 0.3535533905932737 0.3 -0.35355339059327384
v 0.22627416997969516 0.9 -0.22627416997969527
v 0.0 1.25 -0.0
v 0.0 0 -0.0
v 0.300735922991591 0 -0.2637383260400275
v 0.37591990373948875 0.3 -0.32967290755003437
v 0.2405887383932728 0.9 -0.210990660832022
v 0.0 1.25 -0.0
v 0.0 0 -0.0
v 0.317341336116494 0 -0.24350457160348837
v 0.39667667014561747 0.3 -0.30438071450436044
v 0.25387306889319516 0.9 -0.1948036572827907
v 0.0 1.25 -0.0
v 0.0 0 -0.0
v 0.33258784492101795 0 -0.2222280932078412
v 0.4157348061512724 0.3 -0.2777851165098015
v 0.2660702759368143 0.9 -0.17778247456627294
v 0.0 1.25 -0.0
v 0.0 0 -0.0
v 0.34641016151377535 0 -0.20000000000000018
v 0.4330127018922192 0.3 -0.2500000000000002
v 0.2771281292110203 0.9 -0.16000000000000014
v 0.0 1.25 -0.0
v 0.0 0 -0.0
v 0.3587490966130753 0 -0.17691547608760058
v 0.44843637076634413 0.3 -0.2211443451095007
v 0.28699927729046026 0.9 -0.14153238087008047
v 0.0 1.25 -0.0
v 0.0 0 -0.0
v 0.3695518130045148 0 -0.15307337294603585
v 0.4619397662556434 0.3 -0.19134171618254478
v 0.2956414504036118 0.9 -0.12245869835682867
v 0.0 1.25 -0.0
v 0.0 0 -0.0
v 0.37877205179804224 0 -0.12857578612126475
v 0.4734650647475528 0.3 -0.16071973265158093
v 0.3030176414384338 0.9 -0.1028606288970118
v 0.0 1.25 -0.0
v 0.0 0 -0.0
v 0.38637033051562725 0 -0.10352761804100863
v 0.48296291314453405 0.3 -0.12940952255126079
v 0.3090962644125018 0.9 -0.0828220944328069
v 0.0 1.25 -0.0
v 0.0 0 -0.0
v 0.39231411216129214 0 -0.0780361288064515
v 0.49039264020161516 0.3 -0.09754516100806436
v 0.3138512897290337 0.9 -0.062428903045161195
v 0.0 1.25 -0.0
v 0.0 0 -0.0
v 0.39657794454952416 0 -0.05221047688802068
v 0.4957224306869052 0.3 -0.06526309611002584
v 0.31726235563961935 0.9 -0.04176838151041654
v 0.0 1.25 -0.0
v 0.0 0 -0.0
v 0.3991435692954414 0 -0.02616125169205712
v 0.49892946161930174 0.3 -0.0327015646150714
v 0.31931485543635313 0.9 -0.020929001353645695
v 0.0 1.25 -0.0
f 1 6 7
f 1 7 2
f 2 7 8
f 2 8 3
f 3 8 9
f 3 9 4
f 4 9 10
f 4 10 5
f 6 11 12
f 6 12 7
f 7 12 13
f 7 13 8
f 8 13 14
f 8 14 9
f 9 14 15
f 9 15 10
f 11 16 17
f 11 17 12
f 12 17 18
f 12 18 13
f 13 18 19
f 13 19 14
f 14 19 20
f 14 20 15
f 16 21 22
f 16 22 17
f 17 22 23
f 17 23 18
f 18 23 24
f 18 24 19
f 19 24 25
f 19 25 20
f 21 26 27
f 21 27 22
f 22 27 28
f 22 28 23
f 23 28 29
f 23 29 24
f 24 29 30
f 24 30 25
f 26 31 32
f 26 32 27
f 27 32 33
f 27 33 28
f 28 33 34
f 28 34 29
f 29 34 35
f 29 35 30
f 31 36 37
f 31 37 32
f 32 37 38
f 32 38 33
f 33 38 39
f 33 39 34
f 34 39 40
f 34 40 35
f 36 41 42
f 36 42 37
f 37 42 43
f 37 43 38
f 38 43 44
f 38 44 39
f 39 44 45
f 39 45 40
f 41 46 47
f 41 47 42
f 42 47 48
f 42 48 43
f 43 48 49
f 43 49 44
f 44 49 50
f 44 50 45
f 46 51 52
f 46 52 47
f 47 52 53
f 47 53 48
f 48 53 54
f 48 54 49
f 49 54 55
f 49 55 50
f 51 56 57
f 51 57 52
f 52 57 58
f 52 58 53
f 53 58 59
f 53 59 54
f 54 59 60
f 54 60 55
f 56 61 62
f 56 62 57
f 57 62 63
f 57 63 58
f 58 63 64
f 58 64 59
f 59 64 65
f 59 65 60
f 61 66 67
f 61 67 62
f 62 67 68
f 62 68 63
f 63 68 69
f 63 69 64
f 64 69 70
f 64 70 65
f 66 71 72
f 66 72 67
f 67 72 73
f 67 73 68
f 68 73 74
f 68 74 69
f 69 74 75
f 69 75 70
f 71 76 77
f 71 77 72
f 72 77 78
f 72 78 73
f 73 78 79
f 73 79 74
f 74 79 80
f 74 80 75
f 76 81 82
f 76 82 77
f 77 82 83
f 77 83 78
f 78 83 84
f 78 84 79
f 79 84 85
f 79 85 80
f 81 86 87
f 81 87 82
f 82 87 88
f 82 88 83
f 83 88 89
f 83 89 84
f 84 89 90
f 84 90 85
f 86 91 92
f 86 92 87
f 87 92 93
f 87 93 88
f 88 93 94
f 88 94 89
f 89 94 95
f 89 95 90
f 91 96 97
f 91 97 92
f 92 97 98
f 92 98 93
f 93 98 99
f 93 99 94
f 94 99 100
f 94 100 95
f 96 101 102
f 96 102 97
f 97 102 103
f 97 103 98
f 98 103 104
f 98 104 99
f 99 104 105
f 99 105 100
f 101 106 107
f 101 107 102
f 102 107 108
f 102 108 103
f 103 108 109
f 103 109 104
f 104 109 110
f 104 110 105
f 106 111 112
f 106 112 107
f 107 112 113
f 107 113 108
f 108 113 114
f 108 114 109
f 109 114 115
f 109 115 110
f 111 116 117
f 111 117 112
f 112 117 118
f 112 118 113
f 113 118 119
f 113 119 114
f 114 119 120
f 114 120 115
f 116 121 122
f 116 122 117
f 117 122 123
f 117 123 118
f 118 123 124
f 118 124 119
f 119 124 125
f 119 125 120
f 121 126 127
f 121 127 122
f 122 127 128
f 122 128 123
f 123 128 129
f 123 129 124
f 124 129 130
f 124 130 125
f 126 131 132
f 126 132 127
f 127 132 133
f 127 133 128
f 128 133 134
f 128 134 129
f 129 134 135
f 129 135 130
f 131 136 137
f 131 137 132
f 132 137 138
f 132 138 133
f 133 138 139
f 133 139 134
f 134 139 140
f 134 140 135
f 136 141 142
f 136 142 137
f 137 142 143
f 137 143 138
f 138 143 144
f 138 144 139
f 139 144 145
f 139 145 140
f 141 146 147
f 141 147 142
f 142 147 148
f 142 148 143
f 143 148 149
f 143 149 144
f 144 149 150
f 144 150 145
f 146 151 152
f 146 152 147
f 147 152 153
f 147 153 148
f 148 153 154
f 148 154 149
f 149 154 155
f 149 155 150
f 151 156 157
f 151 157 152
f 152 157 158
f 152 158 153
f 153 158 159
f 153 159 154
f 154 159 160
f 154 160 155
f 156 161 162
f 156 162 157
f 157 162 163
f 157 163 158
f 158 163 164
f 158 164 159
f 159 164 165
f 159 165 160
f 161 166 167
f 161 167 162
f 162 167 168
f 162 168 163
f 163 168 169
f 163 169 164
f 164 169 170
f 164 170 165
f 166 171 172
f 166 172 167
f 167 172 173
f 167 173 168
f 168 173 174
f 168 174 169
f 169 174 175
f 169 175 170
f 171 176 177
f 171 177 172
f 172 177 178
f 172 178 173
f 173 178 179
f 173 179 174
f 174 179 180
f 174 180 175
f 176 181 182
f 176 182 177
f 177 182 183
f 177 183 178
f 178 183 184
f 178 184 179
f 179 184 185
f 179 185 180
f 181 186 187
f 181 187 182
f 182 187 188
f 182 188 183
f 183 188 189
f 183 189 184
f 184 189 190
f 184 190 185
f 186 191 192
f 186 192 187
f 187 192 193
f 187 193 188
f 188 193 194
f 188 194 189
f 189 194 195
f 189 195 190
f 191 196 197
f 191 197 192
f 192 197 198
f 192 198 193
f 193 198 199
f 193 199 194
f 194 199 200
f 194 200 195
f 196 201 202
f 196 202 197
f 197 202 203
f 197 203 198
f 198 203 204
f 198 204 199
f 199 204 205
f 199 205 200
f 201 206 207
f 201 207 202
f 202 207 208
f 202 208 203
f 203 208 209
f 203 209 204
f 204 209 210
f 204 210 205
f 206 211 212
f 206 212 207
f 207 212 213
f 207 213 208
f 208 213 214
f 208 214 209
f 209 214 215
f 209 215 210
f 211 216 217
f 211 217 212
f 212 217 218
f 212 218 213
f 213 218 219
f 213 219 214
f 214 219 220
f 214 220 215
f 216 221 222
f 216 222 217
f 217 222 223
f 217 223 218
f 218 223 224
f 218 224 219
f 219 224 225
f 219 225 220
f 221 226 227
f 221 227 222
f 222 227 228
f 222 228 223
f 223 228 229
f 223 229 224
f 224 229 230
f 224 230 225
f 226 231 232
f 226 232 227
f 227 232 233
f 227 233 228
f 228 233 234
f 228 234 229
f 229 234 235
f 229 235 230
f 231 236 237
f 231 237 232
f 232 237 238
f 232 238 233
f 233 238 239
f 233 239 234
f 234 239 240
f 234 240 235
f 236 241 242
f 236 242 237
f 237 242 243
f 237 243 238
f 238 243 244
f 238 244 239
f 239 244 245
f 239 245 240
f 241 246 247
f 241 247 242
f 242 247 248
f 242 248 243
f 243 248 249
f 243 249 244
f 244 249 250
f 244 250 245
f 246 251 252
f 246 252 247
f 247 252 253
f 247 253 248
f 248 253 254
f 248 254 249
f 249 254 255
f 249 255 250
f 251 256 257
f 251 257 252
f 252 257 258
f 252 258 253
f 253 258 259
f 253 259 254
f 254 259 260
f 254 260 255
f 256 261 262
f 256 262 257
f 257 262 263
f 257 263 258
f 258 263 264
f 258 264 259
f 259 264 265
f 259 265 260
f 261 266 267
f 261 267 262
f 262 267 268
f 262 268 263
f 263 268 269
f 263 269 264
f 264 269 270
f 264 270 265
f 266 271 272
f 266 272 267
f 267 272 273
f 267 273 268
f 268 273 274
f 268 274 269
f 269 274 275
f 269 275 270
f 271 276 277
f 271 277 272
f 272 277 278
f 272 278 273
f 273 278 279
f 273 279 274
f 274 279 280
f 274 280 275
f 276 281 282
f 276 282 277
f 277 282 283
f 277 283 278
f 278 283 284
f 278 284 279
f 279 284 285
f 279 285 280
f 281 286 287
f 281 287 282
f 282 287 288
f 282 288 283
f 283 288 289
f 283 289 284
f 284 289 290
f 284 290 285
f 286 291 292
f 286 292 287
f 287 292 293
f 287 293 288
f 288 293 294
f 288 294 289
f 289 294 295
f 289 295 290
f 291 296 297
f 291 297 292
f 292 297 298
f 292 298 293
f 293 298 299
f 293 299 294
f 294 299 300
f 294 300 295
f 296 301 302
f 296 302 297
f 297 302 303
f 297 303 298
f 298 303 304
f 298 304 299
f 299 304 305
f 299 305 300
f 301 306 307
f 301 307 302
f 302 307 308
f 302 308 303
f 303 308 309
f 303 309 304
f 304 309 310
f 304 310 305
f 306 311 312
f 306 312 307
f 307 312 313
f 307 313 308
f 308 313 314
f 308 314 309
f 309 314 315
f 309 315 310
f 311 316 317
f 311 317 312
f 312 317 318
f 312 318 313
f 313 318 319
f 313 319 314
f 314 319 320
f 314 320 315
f 316 321 322
f 316 322 317
f 317 322 323
f 317 323 318
f 318 323 324
f 318 324 319
f 319 324 325
f 319 325 320
f 321 326 327
f 321 327 322
f 322 327 328
f 322 328 323
f 323 328 329
f 323 329 324
f 324 329 330
f 324 330 325
f 326 331 332
f 326 332 327
f 327 332 333
f 327 333 328
f 328 333 334
f 328 334 329
f 329 334 335
f 329 335 330
f 331 336 337
f 331 337 332
f 332 337 338
f 332 338 333
f 333 338 339
f 333 339 334
f 334 339 340
f 334 340 335
f 336 341 342
f 336 342 337
f 337 342 343
f 337 343 338
f 338 343 344
f 338 344 339
f 339 344 345
f 339 345 340
f 341 346 347
f 341 347 342
f 342 347 348
f 342 348 343
f 343 348 349
f 343 349 344
f 344 349 350
f 344 350 345
f 346 351 352
f 346 352 347
f 347 352 353
f 347 353 348
f 348 353 354
f 348 354 349
f 349 354 355
f 349 355 350
f 351 356 357
f 351 357 352
f 352 357 358
f 352 358 353
f 353 358 359
f 353 359 354
f 354 359 360
f 354 360 355
f 356 361 362
f 356 362 357
f 357 362 363
f 357 363 358
f 358 363 364
f 358 364 359
f 359 364 365
f 359 365 360
f 361 366 367
f 361 367 362
f 362 367 368
f 362 368 363
f 363 368 369
f 363 369 364
f 364 369 370
f 364 370 365
f 366 371 372
f 366 372 367
f 367 372 373
f 367 373 368
f 368 373 374
f 368 374 369
f 369 374 375
f 369 375 370
f 371 376 377
f 371 377 372
f 372 377 378
f 372 378 373
f 373 378 379
f 373 379 374
f 374 379 380
f 374 380 375
f 376 381 382
f 376 382 377
f 377 382 383
f 377 383 378
f 378 383 384
f 378 384 379
f 379 384 385
f 379 385 380
f 381 386 387
f 381 387 382
f 382 387 388
f 382 388 383
f 383 388 389
f 383 389 384
f 384 389 390
f 384 390 385
f 386 391 392
f 386 392 387
f 387 392 393
f 387 393 388
f 388 393 394
f 388 394 389
f 389 394 395
f 389 395 390
f 391 396 397
f 391 397 392
f 392 397 398
f 392 398 393
f 393 398 399
f 393 399 394
f 394 399 400
f 394 400 395
f 396 401 402
f 396 402 397
f 397 402 403
f 397 403 398
f 398 403 404
f 398 404 399
f 399 404 405
f 399 405 400
f 401 406 407
f 401 407 402
f 402 407 408
f 402 408 403
f 403 408 409
f 403 409 404
f 404 409 410
f 404 410 405
f 406 411 412
f 406 412 407
f 407 412 413
f 407 413 408
f 408 413 414
f 408 414 409
f 409 414 415
f 409 415 410
f 411 416 417
f 411 417 412
f 412 417 418
f 412 418 413
f 413 418 419
f 413 419 414
f 414 419 420
f 414 420 415
f 416 421 422
f 416 422 417
f 417 422 423
f 417 423 418
f 418 423 424
f 418 424 419
f 419 424 425
f 419 425 420
f 421 426 427
f 421 427 422
f 422 427 428
f 422 428 423
f 423 428 429
f 423 429 424
f 424 429 430
f 424 430 425
f 426 431 432
f 426 432 427
f 427 432 433
f 427 433 428
f 428 433 434
f 428 434 429
f 429 434 435
f 429 435 430
f 431 436 437
f 431 437 432
f 432 437 438
f 432 438 433
f 433 438 439
f 433 439 434
f 434 439 440
f 434 440 435
f 436 441 442
f 436 442 437
f 437 442 443
f 437 443 438
f 438 443 444
f 438 444 439
f 439 444 445
f 439 445 440
f 441 446 447
f 441 447 442
f 442 447 448
f 442 448 443
f 443 448 449
f 443 449 444
f 444 449 450
f 444 450 445
f 446 451 452
f 446 452 447
f 447 452 453
f 447 453 448
f 448 453 454
f 448 454 449
f 449 454 455
f 449 455 450
f 451 456 457
f 451 457 452
f 452 457 458
f 452 458 453
f 453 458 459
f 453 459 454
f 454 459 460
f 454 460 455
f 456 461 462
f 456 462 457
f 457 462 463
f 457 463 458
f 458 463 464
f 458 464 459
f 459 464 465
f 459 465 460
f 461 466 467
f 461 467 462
f 462 467 468
f 462 468 463
f 463 468 469
f 463 469 464
f 464 469 470
f 464 470 465
f 466 471 472
f 466 472 467
f 467 472 473
f 467 473 468
f 468 473 474
f 468 474 469
f 469 474 475
f 469 475 470
f 471 476 477
f 471 477 472
f 472 477 478
f 472 478 473
f 473 478 479
f 473 479 474
f 474 479 480
f 474 480 475
f 476 1 2
f 476 2 477
f 477 2 3
f 477 3 478
f 478 3 4
f 478 4 479
f 479 4 5
f 479 5 480
