# Medium-poly Staunton-style piece
v 0.0 0 0.0
v 0.5 0 0.0
v 0.6 0.4 0.0
v 0.45 1 0.0
v 0.6 1.3 0.0
v 0.4 1.55 0.0
v 0.0 1.8 0.0
v 0.0 0 0.0
v 0.49892946161930174 0 0.03270156461507153
v 0.5987153539431621 0.4 0.039241877538085834
v 0.44903651545737155 1 0.02943140815356438
v 0.5987153539431621 1.3 0.039241877538085834
v 0.3991435692954414 1.55 0.026161251692057227
v 0.0 1.8 0.0
v 0.0 0 0.0
v 0.4957224306869052 0 0.06526309611002579
v 0.5948669168242862 0.4 0.07831571533203094
v 0.4461501876182147 1 0.05873678649902321
v 0.5948669168242862 1.3 0.07831571533203094
v 0.39657794454952416 1.55 0.052210476888020635
v 0.0 1.8 0.0
v 0.0 0 0.0
v 0.4903926402016152 0 0.09754516100806412
v 0.5884711682419382 0.4 0.11705419320967694
v 0.4413533761814537 1 0.08779064490725771
v 0.5884711682419382 1.3 0.11705419320967694
v 0.3923141121612922 1.55 0.0780361288064513
v 0.0 1.8 0.0
v 0.0 0 0.0
v 0.48296291314453416 0 0.12940952255126037
v 0.579555495773441 0.4 0.15529142706151244
v 0.43466662183008076 1 0.11646857029613433
v 0.579555495773441 1.3 0.15529142706151244
v 0.38637033051562736 1.55 0.1035276180410083
v 0.0 1.8 0.0
v 0.0 0 0.0
v 0.47346506474755284 0 0.1607197326515808
v 0.5681580776970634 0.4 0.19286367918189695
v 0.42611855827279754 1 0.14464775938642271
v 0.5681580776970634 1.3 0.19286367918189695
v 0.3787720517980423 1.55 0.12857578612126463
v 0.0 1.8 0.0
v 0.0 0 0.0
v 0.46193976625564337 0 0.1913417161825449
v 0.5543277195067721 0.4 0.22961005941905385
v 0.415745789630079 1 0.1722075445642904
v 0.5543277195067721 1.3 0.22961005941905385
v 0.36955181300451473 1.55 0.15307337294603593
v 0.0 1.8 0.0
v 0.0 0 0.0
v 0.4484363707663442 0 0.22114434510950062
v 0.538123644919613 0.4 0.26537321413140075
v 0.40359273368970977 1 0.19902991059855057
v 0.538123644919613 1.3 0.26537321413140075
v 0.35874909661307536 1.55 0.1769154760876005
v 0.0 1.8 0.0
v 0.0 0 0.0
v 0.43301270189221935 0 0.24999999999999997
v 0.5196152422706632 0.4 0.29999999999999993
v 0.38971143170299744 1 0.22499999999999998
v 0.5196152422706632 1.3 0.29999999999999993
v 0.3464101615137755 1.55 0.19999999999999998
v 0.0 1.8 0.0
v 0.0 0 0.0
v 0.4157348061512726 0 0.2777851165098011
v 0.4988817673815271 0.4 0.3333421398117613
v 0.37416132553614534 1 0.250006604858821
v 0.4988817673815271 1.3 0.3333421398117613
v 0.3325878449210181 1.55 0.22222809320784087
v 0.0 1.8 0.0
v 0.0 0 0.0
v 0.3966766701456176 0 0.30438071450436033
v 0.4760120041747411 0.4 0.3652568574052324
v 0.3570090031310558 1 0.2739426430539243
v 0.4760120041747411 1.3 0.3652568574052324
v 0.31734133611649407 1.55 0.24350457160348826
v 0.0 1.8 0.0
v 0.0 0 0.0
v 0.3759199037394887 0 0.3296729075500344
v 0.4511038844873864 0.4 0.3956074890600413
v 0.33832791336553986 1 0.296705616795031
v 0.4511038844873864 1.3 0.3956074890600413
v 0.30073592299159096 1.55 0.26373832604002756
v 0.0 1.8 0.0
v 0.0 0 0.0
v 0.3535533905932738 0 0.35355339059327373
v 0.4242640687119285 0.4 0.42426406871192845
v 0.3181980515339464 1 0.31819805153394637
v 0.4242640687119285 1.3 0.42426406871192845
v 0.28284271247461906 1.55 0.282842712474619
v 0.0 1.8 0.0
v 0.0 0 0.0
v 0.3296729075500344 0 0.3759199037394887
v 0.3956074890600413 0.4 0.4511038844873864
v 0.296705616795031 1 0.33832791336553986
v 0.3956074890600413 1.3 0.4511038844873864
v 0.26373832604002756 1.55 0.30073592299159096
v 0.0 1.8 0.0
v 0.0 0 0.0
v 0.30438071450436033 0 0.3966766701456176
v 0.3652568574052324 0.4 0.4760120041747411
v 0.2739426430539243 1 0.3570090031310558
v 0.3652568574052324 1.3 0.4760120041747411
v 0.24350457160348826 1.55 0.31734133611649407
v 0.0 1.8 0.0
v 0.0 0 0.0
v 0.2777851165098012 0 0.41573480615127256
v 0.3333421398117614 0.4 0.49888176738152706
v 0.2500066048588211 1 0.37416132553614534
v 0.3333421398117614 1.3 0.49888176738152706
v 0.22222809320784098 1.55 0.33258784492101806
v 0.0 1.8 0.0
v 0.0 0 0.0
v 0.25000000000000006 0 0.4330127018922193
v 0.30000000000000004 0.4 0.5196152422706631
v 0.22500000000000006 1 0.3897114317029974
v 0.30000000000000004 1.3 0.5196152422706631
v 0.20000000000000007 1.55 0.34641016151377546
v 0.0 1.8 0.0
v 0.0 0 0.0
v 0.22114434510950062 0 0.4484363707663442
v 0.26537321413140075 0.4 0.538123644919613
v 0.19902991059855057 1 0.40359273368970977
v 0.26537321413140075 1.3 0.538123644919613
v 0.1769154760876005 1.55 0.35874909661307536
v 0.0 1.8 0.0
v 0.0 0 0.0
v 0.19134171618254492 0 0.46193976625564337
v 0.22961005941905388 0.4 0.5543277195067721
v 0.17220754456429044 1 0.415745789630079
v 0.22961005941905388 1.3 0.5543277195067721
v 0.15307337294603596 1.55 0.36955181300451473
v 0.0 1.8 0.0
v 0.0 0 0.0
v 0.16071973265158085 0 0.4734650647475528
v 0.192863679181897 0.4 0.5681580776970633
v 0.14464775938642277 1 0.42611855827279754
v 0.192863679181897 1.3 0.5681580776970633
v 0.1285757861212647 1.55 0.37877205179804224
v 0.0 1.8 0.0
v 0.0 0 0.0
v 0.12940952255126037 0 0.48296291314453416
v 0.15529142706151244 0.4 0.579555495773441
v 0.11646857029613433 1 0.43466662183008076
v 0.15529142706151244 1.3 0.579555495773441
v 0.1035276180410083 1.55 0.38637033051562736
v 0.0 1.8 0.0
v 0.0 0 0.0
v 0.09754516100806417 0 0.4903926402016152
v 0.117054193209677 0.4 0.5884711682419382
v 0.08779064490725776 1 0.4413533761814537
v 0.117054193209677 1.3 0.5884711682419382
v 0.07803612880645133 1.55 0.3923141121612922
v 0.0 1.8 0.0
v 0.0 0 0.0
v 0.06526309611002586 0 0.4957224306869052
v 0.07831571533203102 0.4 0.5948669168242862
v 0.05873678649902327 1 0.4461501876182147
v 0.07831571533203102 1.3 0.5948669168242862
v 0.05221047688802069 1.55 0.39657794454952416
v 0.0 1.8 0.0
v 0.0 0 0.0
v 0.032701564615071635 0 0.49892946161930174
v 0.03924187753808596 0.4 0.5987153539431621
v 0.029431408153564473 1 0.44903651545737155
v 0.03924187753808596 1.3 0.5987153539431621
v 0.02616125169205731 1.55 0.3991435692954414
v 0.0 1.8 0.0
v 0.0 0 0.0
v 3.061616997868383e-17 0 0.5
v 3.6739403974420595e-17 0.4 0.6
v 2.7554552980815448e-17 1 0.45
v 3.6739403974420595e-17 1.3 0.6
v 2.4492935982947065e-17 1.55 0.4
v 0.0 1.8 0.0
v -0.0 0 0.0
v -0.03270156461507157 0 0.49892946161930174
v -0.03924187753808588 0.4 0.5987153539431621
v -0.029431408153564417 1 0.44903651545737155
v -0.03924187753808588 1.3 0.5987153539431621
v -0.02616125169205726 1.55 0.3991435692954414
v -0.0 1.8 0.0
v -0.0 0 0.0
v -0.0652630961100258 0 0.4957224306869052
v -0.07831571533203095 0.4 0.5948669168242862
v -0.058736786499023225 1 0.4461501876182147
v -0.07831571533203095 1.3 0.5948669168242862
v -0.05221047688802064 1.55 0.39657794454952416
v -0.0 1.8 0.0
v -0.0 0 0.0
v -0.0975451610080641 0 0.4903926402016152
v -0.11705419320967692 0.4 0.5884711682419382
v -0.08779064490725769 1 0.4413533761814537
v -0.11705419320967692 1.3 0.5884711682419382
v -0.07803612880645128 1.55 0.3923141121612922
v -0.0 1.8 0.0
v -0.0 0 0.0
v -0.12940952255126031 0 0.48296291314453416
v -0.15529142706151236 0.4 0.579555495773441
v -0.11646857029613429 1 0.43466662183008076
v -0.15529142706151236 1.3 0.579555495773441
v -0.10352761804100825 1.55 0.38637033051562736
v -0.0 1.8 0.0
v -0.0 0 0.0
v -0.1607197326515808 0 0.47346506474755284
v -0.19286367918189695 0.4 0.5681580776970634
v -0.14464775938642271 1 0.42611855827279754
v -0.19286367918189695 1.3 0.5681580776970634
v -0.12857578612126463 1.55 0.3787720517980423
v -0.0 1.8 0.0
v -0.0 0 0.0
v -0.19134171618254475 0 0.4619397662556434
v -0.22961005941905369 0.4 0.5543277195067721
v -0.17220754456429027 1 0.4157457896300791
v -0.22961005941905369 1.3 0.5543277195067721
v -0.15307337294603582 1.55 0.3695518130045148
v -0.0 1.8 0.0
v -0.0 0 0.0
v -0.22114434510950057 0 0.4484363707663442
v -0.2653732141314007 0.4 0.538123644919613
v -0.19902991059855052 1 0.40359273368970977
v -0.2653732141314007 1.3 0.538123644919613
v -0.17691547608760047 1.55 0.35874909661307536
v -0.0 1.8 0.0
v -0.0 0 0.0
v -0.2499999999999999 0 0.43301270189221935
v -0.2999999999999999 0.4 0.5196152422706632
v -0.2249999999999999 1 0.38971143170299744
v -0.2999999999999999 1.3 0.5196152422706632
v -0.19999999999999993 1.55 0.3464101615137755
v -0.0 1.8 0.0
v -0.0 0 0.0
v -0.27778511650980114 0 0.41573480615127256
v -0.33334213981176136 0.4 0.49888176738152706
v -0.25000660485882104 1 0.37416132553614534
v -0.33334213981176136 1.3 0.49888176738152706
v -0.22222809320784093 1.55 0.33258784492101806
v -0.0 1.8 0.0
v -0.0 0 0.0
v -0.30438071450436033 0 0.3966766701456176
v -0.3652568574052324 0.4 0.4760120041747411
v -0.2739426430539243 1 0.3570090031310558
v -0.3652568574052324 1.3 0.4760120041747411
v -0.24350457160348826 1.55 0.31734133611649407
v -0.0 1.8 0.0
v -0.0 0 0.0
v -0.3296729075500344 0 0.3759199037394887
v -0.3956074890600413 0.4 0.4511038844873864
v -0.296705616795031 1 0.33832791336553986
v -0.3956074890600413 1.3 0.4511038844873864
v -0.26373832604002756 1.55 0.30073592299159096
v -0.0 1.8 0.0
v -0.0 0 0.0
v -0.35355339059327373 0 0.3535533905932738
v -0.42426406871192845 0.4 0.4242640687119285
v -0.31819805153394637 1 0.3181980515339464
v -0.42426406871192845 1.3 0.4242640687119285
v -0.282842712474619 1.55 0.28284271247461906
v -0.0 1.8 0.0
v -0.0 0 0.0
v -0.37591990373948864 0 0.3296729075500345
v -0.45110388448738636 0.4 0.39560748906004134
v -0.3383279133655398 1 0.29670561679503105
v -0.45110388448738636 1.3 0.39560748906004134
v -0.3007359229915909 1.55 0.2637383260400276
v -0.0 1.8 0.0
v -0.0 0 0.0
v -0.3966766701456175 0 0.30438071450436044
v -0.476012004174741 0.4 0.3652568574052325
v -0.35700900313105577 1 0.2739426430539244
v -0.476012004174741 1.3 0.3652568574052325
v -0.31734133611649407 1.55 0.24350457160348837
v -0.0 1.8 0.0
v -0.0 0 0.0
v -0.4157348061512725 0 0.27778511650980126
v -0.498881767381527 0.4 0.3333421398117615
v -0.3741613255361453 1 0.25000660485882115
v -0.498881767381527 1.3 0.3333421398117615
v -0.332587844921018 1.55 0.222228093207841
v -0.0 1.8 0.0
v -0.0 0 0.0
v -0.43301270189221935 0 0.24999999999999997
v -0.5196152422706632 0.4 0.29999999999999993
v -0.38971143170299744 1 0.22499999999999998
v -0.5196152422706632 1.3 0.29999999999999993
v -0.3464101615137755 1.55 0.19999999999999998
v -0.0 1.8 0.0
v -0.0 0 0.0
v -0.4484363707663441 0 0.22114434510950085
v -0.5381236449196128 0.4 0.265373214131401
v -0.40359273368970966 1 0.19902991059855077
v -0.5381236449196128 1.3 0.265373214131401
v -0.3587490966130753 1.55 0.1769154760876007
v -0.0 1.8 0.0
v -0.0 0 0.0
v -0.46193976625564337 0 0.19134171618254495
v -0.5543277195067721 0.4 0.22961005941905394
v -0.415745789630079 1 0.17220754456429047
v -0.5543277195067721 1.3 0.22961005941905394
v -0.36955181300451473 1.55 0.15307337294603596
v -0.0 1.8 0.0
v -0.0 0 0.0
v -0.4734650647475528 0 0.16071973265158088
v -0.5681580776970633 0.4 0.19286367918189704
v -0.42611855827279754 1 0.1446477593864228
v -0.5681580776970633 1.3 0.19286367918189704
v -0.37877205179804224 1.55 0.12857578612126472
v -0.0 1.8 0.0
v -0.0 0 0.0
v -0.4829629131445341 0 0.1294095225512605
v -0.5795554957734409 0.4 0.1552914270615126
v -0.4346666218300807 1 0.11646857029613446
v -0.5795554957734409 1.3 0.1552914270615126
v -0.3863703305156273 1.55 0.1035276180410084
v -0.0 1.8 0.0
v -0.0 0 0.0
v -0.4903926402016152 0 0.09754516100806408
v -0.5884711682419382 0.4 0.11705419320967689
v -0.4413533761814537 1 0.08779064490725767
v -0.5884711682419382 1.3 0.11705419320967689
v -0.3923141121612922 1.55 0.07803612880645128
v -0.0 1.8 0.0
v -0.0 0 0.0
v -0.4957224306869052 0 0.065263096110026
v -0.5948669168242862 0.4 0.07831571533203119
v -0.4461501876182147 1 0.0587367864990234
v -0.5948669168242862 1.3 0.07831571533203119
v -0.39657794454952416 1.55 0.0522104768880208
v -0.0 1.8 0.0
v -0.0 0 0.0
v -0.49892946161930174 0 0.03270156461507156
v -0.5987153539431621 0.4 0.03924187753808587
v -0.44903651545737155 1 0.029431408153564403
v -0.5987153539431621 1.3 0.03924187753808587
v -0.3991435692954414 1.55 0.026161251692057248
v -0.0 1.8 0.0
v -0.0 0 0.0
v -0.5 0 6.123233995736766e-17
v -0.6 0.4 7.347880794884119e-17
v -0.45 1 5.5109105961630896e-17
v -0.6 1.3 7.347880794884119e-17
v -0.4 1.55 4.898587196589413e-17
v -0.0 1.8 0.0
v -0.0 0 -0.0
v -0.49892946161930174 0 -0.032701564615071434
v -0.5987153539431621 0.4 -0.039241877538085716
v -0.44903651545737155 1 -0.029431408153564292
v -0.5987153539431621 1.3 -0.039241877538085716
v -0.3991435692954414 1.55 -0.026161251692057148
v -0.0 1.8 -0.0
v -0.0 0 -0.0
v -0.4957224306869052 0 -0.06526309611002588
v -0.5948669168242862 0.4 -0.07831571533203106
v -0.4461501876182147 1 -0.058736786499023294
v -0.5948669168242862 1.3 -0.07831571533203106
v -0.39657794454952416 1.55 -0.05221047688802071
v -0.0 1.8 -0.0
v -0.0 0 -0.0
v -0.49039264020161527 0 -0.09754516100806396
v -0.5884711682419383 0.4 -0.11705419320967675
v -0.44135337618145376 1 -0.08779064490725756
v -0.5884711682419383 1.3 -0.11705419320967675
v -0.39231411216129225 1.55 -0.07803612880645117
v -0.0 1.8 -0.0
v -0.0 0 -0.0
v -0.48296291314453416 0 -0.1294095225512604
v -0.579555495773441 0.4 -0.15529142706151247
v -0.43466662183008076 1 -0.11646857029613436
v -0.579555495773441 1.3 -0.15529142706151247
v -0.38637033051562736 1.55 -0.10352761804100832
v -0.0 1.8 -0.0
v -0.0 0 -0.0
v -0.47346506474755284 0 -0.16071973265158077
v -0.5681580776970634 0.4 -0.19286367918189692
v -0.42611855827279754 1 -0.1446477593864227
v -0.5681580776970634 1.3 -0.19286367918189692
v -0.3787720517980423 1.55 -0.1285757861212646
v -0.0 1.8 -0.0
v -0.0 0 -0.0
v -0.4619397662556434 0 -0.19134171618254484
v -0.5543277195067721 0.4 -0.2296100594190538
v -0.4157457896300791 1 -0.17220754456429035
v -0.5543277195067721 1.3 -0.2296100594190538
v -0.3695518130045148 1.55 -0.15307337294603587
v -0.0 1.8 -0.0
v -0.0 0 -0.0
v -0.44843637076634413 0 -0.22114434510950073
v -0.538123644919613 0.4 -0.26537321413140086
v -0.4035927336897097 1 -0.19902991059855066
v -0.538123644919613 1.3 -0.26537321413140086
v -0.3587490966130753 1.55 -0.1769154760876006
v -0.0 1.8 -0.0
v -0.0 0 -0.0
v -0.4330127018922194 0 -0.24999999999999986
v -0.5196152422706632 0.4 -0.2999999999999998
v -0.3897114317029975 1 -0.22499999999999987
v -0.5196152422706632 1.3 -0.2999999999999998
v -0.34641016151377557 1.55 -0.1999999999999999
v -0.0 1.8 -0.0
v -0.0 0 -0.0
v -0.41573480615127273 0 -0.277785116509801
v -0.49888176738152723 0.4 -0.33334213981176114
v -0.37416132553614545 1 -0.25000660485882087
v -0.49888176738152723 1.3 -0.33334213981176114
v -0.3325878449210182 1.55 -0.2222280932078408
v -0.0 1.8 -0.0
v -0.0 0 -0.0
v -0.3966766701456176 0 -0.30438071450436033
v -0.4760120041747411 0.4 -0.3652568574052324
v -0.3570090031310558 1 -0.2739426430539243
v -0.4760120041747411 1.3 -0.3652568574052324
v -0.31734133611649407 1.55 -0.24350457160348826
v -0.0 1.8 -0.0
v -0.0 0 -0.0
v -0.37591990373948875 0 -0.3296729075500344
v -0.4511038844873865 0.4 -0.3956074890600413
v -0.33832791336553986 1 -0.296705616795031
v -0.4511038844873865 1.3 -0.3956074890600413
v -0.300735922991591 1.55 -0.26373832604002756
v -0.0 1.8 -0.0
v -0.0 0 -0.0
v -0.35355339059327395 0 -0.35355339059327356
v -0.42426406871192873 0.4 -0.4242640687119283
v -0.3181980515339466 1 -0.3181980515339462
v -0.42426406871192873 1.3 -0.4242640687119283
v -0.2828427124746192 1.55 -0.28284271247461884
v -0.0 1.8 -0.0
v -0.0 0 -0.0
v -0.32967290755003453 0 -0.37591990373948864
v -0.39560748906004145 0.4 -0.45110388448738636
v -0.2967056167950311 1 -0.3383279133655398
v -0.39560748906004145 1.3 -0.45110388448738636
v -0.2637383260400276 1.55 -0.3007359229915909
v -0.0 1.8 -0.0
v -0.0 0 -0.0
v -0.30438071450436044 0 -0.39667667014561747
v -0.3652568574052325 0.4 -0.47601200417474093
v -0.2739426430539244 1 -0.3570090031310557
v -0.3652568574052325 1.3 -0.47601200417474093
v -0.24350457160348837 1.55 -0.317341336116494
v -0.0 1.8 -0.0
v -0.0 0 -0.0
v -0.2777851165098011 0 -0.4157348061512726
v -0.3333421398117613 0.4 -0.4988817673815271
v -0.250006604858821 1 -0.37416132553614534
v -0.3333421398117613 1.3 -0.4988817673815271
v -0.22222809320784087 1.55 -0.3325878449210181
v -0.0 1.8 -0.0
v -0.0 0 -0.0
v -0.2500000000000002 0 -0.4330127018922192
v -0.30000000000000027 0.4 -0.519615242270663
v -0.2250000000000002 1 -0.38971143170299727
v -0.30000000000000027 1.3 -0.519615242270663
v -0.20000000000000018 1.55 -0.34641016151377535
v -0.0 1.8 -0.0
v -0.0 0 -0.0
v -0.22114434510950068 0 -0.44843637076634413
v -0.2653732141314008 0.4 -0.538123644919613
v -0.1990299105985506 1 -0.4035927336897097
v -0.2653732141314008 1.3 -0.538123644919613
v -0.17691547608760055 1.55 -0.3587490966130753
v -0.0 1.8 -0.0
v -0.0 0 -0.0
v -0.19134171618254475 0 -0.4619397662556434
v -0.22961005941905369 0.4 -0.5543277195067721
v -0.17220754456429027 1 -0.4157457896300791
v -0.22961005941905369 1.3 -0.5543277195067721
v -0.15307337294603582 1.55 -0.3695518130045148
v -0.0 1.8 -0.0
v -0.0 0 -0.0
v -0.1607197326515809 0 -0.4734650647475528
v -0.1928636791818971 0.4 -0.5681580776970633
v -0.14464775938642283 1 -0.42611855827279754
v -0.1928636791818971 1.3 -0.5681580776970633
v -0.12857578612126472 1.55 -0.37877205179804224
v -0.0 1.8 -0.0
v -0.0 0 -0.0
v -0.12940952255126031 0 -0.48296291314453416
v -0.15529142706151236 0.4 -0.579555495773441
v -0.11646857029613429 1 -0.43466662183008076
v -0.15529142706151236 1.3 -0.579555495773441
v -0.10352761804100825 1.55 -0.38637033051562736
v -0.0 1.8 -0.0
v -0.0 0 -0.0
v -0.09754516100806433 0 -0.49039264020161516
v -0.1170541932096772 0.4 -0.5884711682419381
v -0.0877906449072579 1 -0.44135337618145365
v -0.1170541932096772 1.3 -0.5884711682419381
v -0.07803612880645147 1.55 -0.39231411216129214
v -0.0 1.8 -0.0
v -0.0 0 -0.0
v -0.06526309611002581 0 -0.4957224306869052
v -0.07831571533203098 0.4 -0.5948669168242862
v -0.05873678649902323 1 -0.4461501876182147
v -0.07831571533203098 1.3 -0.5948669168242862
v -0.052210476888020656 1.55 -0.39657794454952416
v -0.0 1.8 -0.0
v -0.0 0 -0.0
v -0.032701564615071364 0 -0.49892946161930174
v -0.03924187753808563 0.4 -0.5987153539431621
v -0.02943140815356423 1 -0.44903651545737155
v -0.03924187753808563 1.3 -0.5987153539431621
v -0.026161251692057092 1.55 -0.3991435692954414
v -0.0 1.8 -0.0
v -0.0 0 -0.0
v -9.184850993605148e-17 0 -0.5
v -1.1021821192326178e-16 0.4 -0.6
v -8.266365894244634e-17 1 -0.45
v -1.1021821192326178e-16 1.3 -0.6
v -7.347880794884119e-17 1.55 -0.4
v -0.0 1.8 -0.0
v 0.0 0 -0.0
v 0.032701564615071184 0 -0.4989294616193018
v 0.03924187753808542 0.4 -0.5987153539431621
v 0.029431408153564067 1 -0.4490365154573716
v 0.03924187753808542 1.3 -0.5987153539431621
v 0.02616125169205695 1.55 -0.3991435692954415
v 0.0 1.8 -0.0
v 0.0 0 -0.0
v 0.06526309611002563 0 -0.49572243068690525
v 0.07831571533203076 0.4 -0.5948669168242863
v 0.05873678649902307 1 -0.44615018761821473
v 0.07831571533203076 1.3 -0.5948669168242863
v 0.05221047688802051 1.55 -0.3965779445495242
v 0.0 1.8 -0.0
v 0.0 0 -0.0
v 0.09754516100806415 0 -0.4903926402016152
v 0.11705419320967697 0.4 -0.5884711682419382
v 0.08779064490725774 1 -0.4413533761814537
v 0.11705419320967697 1.3 -0.5884711682419382
v 0.07803612880645133 1.55 -0.3923141121612922
v 0.0 1.8 -0.0
v 0.0 0 -0.0
v 0.12940952255126015 0 -0.4829629131445342
v 0.15529142706151217 0.4 -0.579555495773441
v 0.11646857029613414 1 -0.4346666218300808
v 0.15529142706151217 1.3 -0.579555495773441
v 0.10352761804100813 1.55 -0.3863703305156274
v 0.0 1.8 -0.0
v 0.0 0 -0.0
v 0.16071973265158074 0 -0.47346506474755284
v 0.19286367918189687 0.4 -0.5681580776970634
v 0.14464775938642266 1 -0.42611855827279754
v 0.19286367918189687 1.3 -0.5681580776970634
v 0.1285757861212646 1.55 -0.3787720517980423
v 0.0 1.8 -0.0
v 0.0 0 -0.0
v 0.19134171618254459 0 -0.4619397662556435
v 0.2296100594190535 0.4 -0.5543277195067722
v 0.17220754456429013 1 -0.41574578963007913
v 0.2296100594190535 1.3 -0.5543277195067722
v 0.15307337294603568 1.55 -0.3695518130045148
v 0.0 1.8 -0.0
v 0.0 0 -0.0
v 0.2211443451095005 0 -0.44843637076634424
v 0.2653732141314006 0.4 -0.5381236449196131
v 0.19902991059855046 1 -0.4035927336897098
v 0.2653732141314006 1.3 -0.5381236449196131
v 0.17691547608760042 1.55 -0.3587490966130754
v 0.0 1.8 -0.0
v 0.0 0 -0.0
v 0.25000000000000006 0 -0.4330127018922193
v 0.30000000000000004 0.4 -0.5196152422706631
v 0.22500000000000006 1 -0.3897114317029974
v 0.30000000000000004 1.3 -0.5196152422706631
v 0.20000000000000007 1.55 -0.34641016151377546
v 0.0 1.8 -0.0
v 0.0 0 -0.0
v 0.2777851165098009 0 -0.41573480615127273
v 0.3333421398117611 0.4 -0.49888176738152723
v 0.2500066048588208 1 -0.37416132553614545
v 0.3333421398117611 1.3 -0.49888176738152723
v 0.22222809320784076 1.55 -0.3325878449210182
v 0.0 1.8 -0.0
v 0.0 0 -0.0
v 0.30438071450435994 0 -0.39667667014561786
v 0.3652568574052319 0.4 -0.47601200417474143
v 0.27394264305392396 1 -0.3570090031310561
v 0.3652568574052319 1.3 -0.47601200417474143
v 0.24350457160348796 1.55 -0.3173413361164943
v 0.0 1.8 -0.0
v 0.0 0 -0.0
v 0.32967290755003453 0 -0.3759199037394886
v 0.39560748906004145 0.4 -0.45110388448738625
v 0.2967056167950311 1 -0.33832791336553975
v 0.39560748906004145 1.3 -0.45110388448738625
v 0.2637383260400276 1.55 -0.3007359229915909
v 0.0 1.8 -0.0
v 0.0 0 -0.0
v 0.3535533905932737 0 -0.35355339059327384
v 0.4242640687119284 0.4 -0.4242640687119286
v 0.3181980515339463 1 -0.3181980515339465
v 0.4242640687119284 1.3 -0.4242640687119286
v 0.28284271247461895 1.55 -0.28284271247461906
v 0.0 1.8 -0.0
v 0.0 0 -0.0
v 0.37591990373948875 0 -0.32967290755003437
v 0.4511038844873865 0.4 -0.39560748906004123
v 0.33832791336553986 1 -0.29670561679503094
v 0.4511038844873865 1.3 -0.39560748906004123
v 0.300735922991591 1.55 -0.2637383260400275
v 0.0 1.8 -0.0
v 0.0 0 -0.0
v 0.39667667014561747 0 -0.30438071450436044
v 0.47601200417474093 0.4 -0.3652568574052325
v 0.3570090031310557 1 -0.2739426430539244
v 0.47601200417474093 1.3 -0.3652568574052325
v 0.317341336116494 1.55 -0.24350457160348837
v 0.0 1.8 -0.0
v 0.0 0 -0.0
v 0.4157348061512724 0 -0.2777851165098015
v 0.49888176738152684 0.4 -0.33334213981176175
v 0.3741613255361452 1 -0.2500066048588213
v 0.49888176738152684 1.3 -0.33334213981176175
v 0.33258784492101795 1.55 -0.2222280932078412
v 0.0 1.8 -0.0
v 0.0 0 -0.0
v 0.4330127018922192 0 -0.2500000000000002
v 0.519615242270663 0.4 -0.30000000000000027
v 0.38971143170299727 1 -0.2250000000000002
v 0.519615242270663 1.3 -0.30000000000000027
v 0.34641016151377535 1.55 -0.20000000000000018
v 0.0 1.8 -0.0
v 0.0 0 -0.0
v 0.44843637076634413 0 -0.2211443451095007
v 0.538123644919613 0.4 -0.26537321413140086
v 0.4035927336897097 1 -0.19902991059855063
v 0.538123644919613 1.3 -0.26537321413140086
v 0.3587490966130753 1.55 -0.17691547608760058
v 0.0 1.8 -0.0
v 0.0 0 -0.0
v 0.4619397662556434 0 -0.19134171618254478
v 0.5543277195067721 0.4 -0.2296100594190537
v 0.4157457896300791 1 -0.1722075445642903
v 0.5543277195067721 1.3 -0.2296100594190537
v 0.3695518130045148 1.55 -0.15307337294603585
v 0.0 1.8 -0.0
v 0.0 0 -0.0
v 0.4734650647475528 0 -0.16071973265158093
v 0.5681580776970633 0.4 -0.19286367918189712
v 0.42611855827279754 1 -0.14464775938642285
v 0.5681580776970633 1.3 -0.19286367918189712
v 0.37877205179804224 1.55 -0.12857578612126475
v 0.0 1.8 -0.0
v 0.0 0 -0.0
v 0.48296291314453405 0 -0.12940952255126079
v 0.5795554957734408 0.4 -0.15529142706151294
v 0.43466662183008065 1 -0.11646857029613471
v 0.5795554957734408 1.3 -0.15529142706151294
v 0.38637033051562725 1.55 -0.10352761804100863
v 0.0 1.8 -0.0
v 0.0 0 -0.0
v 0.49039264020161516 0 -0.09754516100806436
v 0.5884711682419381 0.4 -0.11705419320967722
v 0.44135337618145365 1 -0.08779064490725792
v 0.5884711682419381 1.3 -0.11705419320967722
v 0.39231411216129214 1.55 -0.0780361288064515
v 0.0 1.8 -0.0
v 0.0 0 -0.0
v 0.4957224306869052 0 -0.06526309611002584
v 0.5948669168242862 0.4 -0.07831571533203101
v 0.4461501876182147 1 -0.05873678649902326
v 0.5948669168242862 1.3 -0.07831571533203101
v 0.39657794454952416 1.55 -0.05221047688802068
v 0.0 1.8 -0.0
v 0.0 0 -0.0
v 0.49892946161930174 0 -0.0327015646150714
v 0.5987153539431621 0.4 -0.039241877538085675
v 0.44903651545737155 1 -0.02943140815356426
v 0.5987153539431621 1.3 -0.039241877538085675
v 0.3991435692954414 1.55 -0.02616125169205712
v 0.0 1.8 -0.0
f 1 8 9
f 1 9 2
f 2 9 10
f 2 10 3
f 3 10 11
f 3 11 4
f 4 11 12
f 4 12 5
f 5 12 13
f 5 13 6
f 6 13 14
f 6 14 7
f 8 15 16
f 8 16 9
f 9 16 17
f 9 17 10
f 10 17 18
f 10 18 11
f 11 18 19
f 11 19 12
f 12 19 20
f 12 20 13
f 13 20 21
f 13 21 14
f 15 22 23
f 15 23 16
f 16 23 24
f 16 24 17
f 17 24 25
f 17 25 18
f 18 25 26
f 18 26 19
f 19 26 27
f 19 27 20
f 20 27 28
f 20 28 21
f 22 29 30
f 22 30 23
f 23 30 31
f 23 31 24
f 24 31 32
f 24 32 25
f 25 32 33
f 25 33 26
f 26 33 34
f 26 34 27
f 27 34 35
f 27 35 28
f 29 36 37
f 29 37 30
f 30 37 38
f 30 38 31
f 31 38 39
f 31 39 32
f 32 39 40
f 32 40 33
f 33 40 41
f 33 41 34
f 34 41 42
f 34 42 35
f 36 43 44
f 36 44 37
f 37 44 45
f 37 45 38
f 38 45 46
f 38 46 39
f 39 46 47
f 39 47 40
f 40 47 48
f 40 48 41
f 41 48 49
f 41 49 42
f 43 50 51
f 43 51 44
f 44 51 52
f 44 52 45
f 45 52 53
f 45 53 46
f 46 53 54
f 46 54 47
f 47 54 55
f 47 55 48
f 48 55 56
f 48 56 49
f 50 57 58
f 50 58 51
f 51 58 59
f 51 59 52
f 52 59 60
f 52 60 53
f 53 60 61
f 53 61 54
f 54 61 62
f 54 62 55
f 55 62 63
f 55 63 56
f 57 64 65
f 57 65 58
f 58 65 66
f 58 66 59
f 59 66 67
f 59 67 60
f 60 67 68
f 60 68 61
f 61 68 69
f 61 69 62
f 62 69 70
f 62 70 63
f 64 71 72
f 64 72 65
f 65 72 73
f 65 73 66
f 66 73 74
f 66 74 67
f 67 74 75
f 67 75 68
f 68 75 76
f 68 76 69
f 69 76 77
f 69 77 70
f 71 78 79
f 71 79 72
f 72 79 80
f 72 80 73
f 73 80 81
f 73 81 74
f 74 81 82
f 74 82 75
f 75 82 83
f 75 83 76
f 76 83 84
f 76 84 77
f 78 85 86
f 78 86 79
f 79 86 87
f 79 87 80
f 80 87 88
f 80 88 81
f 81 88 89
f 81 89 82
f 82 89 90
f 82 90 83
f 83 90 91
f 83 91 84
f 85 92 93
f 85 93 86
f 86 93 94
f 86 94 87
f 87 94 95
f 87 95 88
f 88 95 96
f 88 96 89
f 89 96 97
f 89 97 90
f 90 97 98
f 90 98 91
f 92 99 100
f 92 100 93
f 93 100 101
f 93 101 94
f 94 101 102
f 94 102 95
f 95 102 103
f 95 103 96
f 96 103 104
f 96 104 97
f 97 104 105
f 97 105 98
f 99 106 107
f 99 107 100
f 100 107 108
f 100 108 101
f 101 108 109
f 101 109 102
f 102 109 110
f 102 110 103
f 103 110 111
f 103 111 104
f 104 111 112
f 104 112 105
f 106 113 114
f 106 114 107
f 107 114 115
f 107 115 108
f 108 115 116
f 108 116 109
f 109 116 117
f 109 117 110
f 110 117 118
f 110 118 111
f 111 118 119
f 111 119 112
f 113 120 121
f 113 121 114
f 114 121 122
f 114 122 115
f 115 122 123
f 115 123 116
f 116 123 124
f 116 124 117
f 117 124 125
f 117 125 118
f 118 125 126
f 118 126 119
f 120 127 128
f 120 128 121
f 121 128 129
f 121 129 122
f 122 129 130
f 122 130 123
f 123 130 131
f 123 131 124
f 124 131 132
f 124 132 125
f 125 132 133
f 125 133 126
f 127 134 135
f 127 135 128
f 128 135 136
f 128 136 129
f 129 136 137
f 129 137 130
f 130 137 138
f 130 138 131
f 131 138 139
f 131 139 132
f 132 139 140
f 132 140 133
f 134 141 142
f 134 142 135
f 135 142 143
f 135 143 136
f 136 143 144
f 136 144 137
f 137 144 145
f 137 145 138
f 138 145 146
f 138 146 139
f 139 146 147
f 139 147 140
f 141 148 149
f 141 149 142
f 142 149 150
f 142 150 143
f 143 150 151
f 143 151 144
f 144 151 152
f 144 152 145
f 145 152 153
f 145 153 146
f 146 153 154
f 146 154 147
f 148 155 156
f 148 156 149
f 149 156 157
f 149 157 150
f 150 157 158
f 150 158 151
f 151 158 159
f 151 159 152
f 152 159 160
f 152 160 153
f 153 160 161
f 153 161 154
f 155 162 163
f 155 163 156
f 156 163 164
f 156 164 157
f 157 164 165
f 157 165 158
f 158 165 166
f 158 166 159
f 159 166 167
f 159 167 160
f 160 167 168
f 160 168 161
f 162 169 170
f 162 170 163
f 163 170 171
f 163 171 164
f 164 171 172
f 164 172 165
f 165 172 173
f 165 173 166
f 166 173 174
f 166 174 167
f 167 174 175
f 167 175 168
f 169 176 177
f 169 177 170
f 170 177 178
f 170 178 171
f 171 178 179
f 171 179 172
f 172 179 180
f 172 180 173
f 173 180 181
f 173 181 174
f 174 181 182
f 174 182 175
f 176 183 184
f 176 184 177
f 177 184 185
f 177 185 178
f 178 185 186
f 178 186 179
f 179 186 187
f 179 187 180
f 180 187 188
f 180 188 181
f 181 188 189
f 181 189 182
f 183 190 191
f 183 191 184
f 184 191 192
f 184 192 185
f 185 192 193
f 185 193 186
f 186 193 194
f 186 194 187
f 187 194 195
f 187 195 188
f 188 195 196
f 188 196 189
f 190 197 198
f 190 198 191
f 191 198 199
f 191 199 192
f 192 199 200
f 192 200 193
f 193 200 201
f 193 201 194
f 194 201 202
f 194 202 195
f 195 202 203
f 195 203 196
f 197 204 205
f 197 205 198
f 198 205 206
f 198 206 199
f 199 206 207
f 199 207 200
f 200 207 208
f 200 208 201
f 201 208 209
f 201 209 202
f 202 209 210
f 202 210 203
f 204 211 212
f 204 212 205
f 205 212 213
f 205 213 206
f 206 213 214
f 206 214 207
f 207 214 215
f 207 215 208
f 208 215 216
f 208 216 209
f 209 216 217
f 209 217 210
f 211 218 219
f 211 219 212
f 212 219 220
f 212 220 213
f 213 220 221
f 213 221 214
f 214 221 222
f 214 222 215
f 215 222 223
f 215 223 216
f 216 223 224
f 216 224 217
f 218 225 226
f 218 226 219
f 219 226 227
f 219 227 220
f 220 227 228
f 220 228 221
f 221 228 229
f 221 229 222
f 222 229 230
f 222 230 223
f 223 230 231
f 223 231 224
f 225 232 233
f 225 233 226
f 226 233 234
f 226 234 227
f 227 234 235
f 227 235 228
f 228 235 236
f 228 236 229
f 229 236 237
f 229 237 230
f 230 237 238
f 230 238 231
f 232 239 240
f 232 240 233
f 233 240 241
f 233 241 234
f 234 241 242
f 234 242 235
f 235 242 243
f 235 243 236
f 236 243 244
f 236 244 237
f 237 244 245
f 237 245 238
f 239 246 247
f 239 247 240
f 240 247 248
f 240 248 241
f 241 248 249
f 241 249 242
f 242 249 250
f 242 250 243
f 243 250 251
f 243 251 244
f 244 251 252
f 244 252 245
f 246 253 254
f 246 254 247
f 247 254 255
f 247 255 248
f 248 255 256
f 248 256 249
f 249 256 257
f 249 257 250
f 250 257 258
f 250 258 251
f 251 258 259
f 251 259 252
f 253 260 261
f 253 261 254
f 254 261 262
f 254 262 255
f 255 262 263
f 255 263 256
f 256 263 264
f 256 264 257
f 257 264 265
f 257 265 258
f 258 265 266
f 258 266 259
f 260 267 268
f 260 268 261
f 261 268 269
f 261 269 262
f 262 269 270
f 262 270 263
f 263 270 271
f 263 271 264
f 264 271 272
f 264 272 265
f 265 272 273
f 265 273 266
f 267 274 275
f 267 275 268
f 268 275 276
f 268 276 269
f 269 276 277
f 269 277 270
f 270 277 278
f 270 278 271
f 271 278 279
f 271 279 272
f 272 279 280
f 272 280 273
f 274 281 282
f 274 282 275
f 275 282 283
f 275 283 276
f 276 283 284
f 276 284 277
f 277 284 285
f 277 285 278
f 278 285 286
f 278 286 279
f 279 286 287
f 279 287 280
f 281 288 289
f 281 289 282
f 282 289 290
f 282 290 283
f 283 290 291
f 283 291 284
f 284 291 292
f 284 292 285
f 285 292 293
f 285 293 286
f 286 293 294
f 286 294 287
f 288 295 296
f 288 296 289
f 289 296 297
f 289 297 290
f 290 297 298
f 290 298 291
f 291 298 299
f 291 299 292
f 292 299 300
f 292 300 293
f 293 300 301
f 293 301 294
f 295 302 303
f 295 303 296
f 296 303 304
f 296 304 297
f 297 304 305
f 297 305 298
f 298 305 306
f 298 306 299
f 299 306 307
f 299 307 300
f 300 307 308
f 300 308 301
f 302 309 310
f 302 310 303
f 303 310 311
f 303 311 304
f 304 311 312
f 304 312 305
f 305 312 313
f 305 313 306
f 306 313 314
f 306 314 307
f 307 314 315
f 307 315 308
f 309 316 317
f 309 317 310
f 310 317 318
f 310 318 311
f 311 318 319
f 311 319 312
f 312 319 320
f 312 320 313
f 313 320 321
f 313 321 314
f 314 321 322
f 314 322 315
f 316 323 324
f 316 324 317
f 317 324 325
f 317 325 318
f 318 325 326
f 318 326 319
f 319 326 327
f 319 327 320
f 320 327 328
f 320 328 321
f 321 328 329
f 321 329 322
f 323 330 331
f 323 331 324
f 324 331 332
f 324 332 325
f 325 332 333
f 325 333 326
f 326 333 334
f 326 334 327
f 327 334 335
f 327 335 328
f 328 335 336
f 328 336 329
f 330 337 338
f 330 338 331
f 331 338 339
f 331 339 332
f 332 339 340
f 332 340 333
f 333 340 341
f 333 341 334
f 334 341 342
f 334 342 335
f 335 342 343
f 335 343 336
f 337 344 345
f 337 345 338
f 338 345 346
f 338 346 339
f 339 346 347
f 339 347 340
f 340 347 348
f 340 348 341
f 341 348 349
f 341 349 342
f 342 349 350
f 342 350 343
f 344 351 352
f 344 352 345
f 345 352 353
f 345 353 346
f 346 353 354
f 346 354 347
f 347 354 355
f 347 355 348
f 348 355 356
f 348 356 349
f 349 356 357
f 349 357 350
f 351 358 359
f 351 359 352
f 352 359 360
f 352 360 353
f 353 360 361
f 353 361 354
f 354 361 362
f 354 362 355
f 355 362 363
f 355 363 356
f 356 363 364
f 356 364 357
f 358 365 366
f 358 366 359
f 359 366 367
f 359 367 360
f 360 367 368
f 360 368 361
f 361 368 369
f 361 369 362
f 362 369 370
f 362 370 363
f 363 370 371
f 363 371 364
f 365 372 373
f 365 373 366
f 366 373 374
f 366 374 367
f 367 374 375
f 367 375 368
f 368 375 376
f 368 376 369
f 369 376 377
f 369 377 370
f 370 377 378
f 370 378 371
f 372 379 380
f 372 380 373
f 373 380 381
f 373 381 374
f 374 381 382
f 374 382 375
f 375 382 383
f 375 383 376
f 376 383 384
f 376 384 377
f 377 384 385
f 377 385 378
f 379 386 387
f 379 387 380
f 380 387 388
f 380 388 381
f 381 388 389
f 381 389 382
f 382 389 390
f 382 390 383
f 383 390 391
f 383 391 384
f 384 391 392
f 384 392 385
f 386 393 394
f 386 394 387
f 387 394 395
f 387 395 388
f 388 395 396
f 388 396 389
f 389 396 397
f 389 397 390
f 390 397 398
f 390 398 391
f 391 398 399
f 391 399 392
f 393 400 401
f 393 401 394
f 394 401 402
f 394 402 395
f 395 402 403
f 395 403 396
f 396 403 404
f 396 404 397
f 397 404 405
f 397 405 398
f 398 405 406
f 398 406 399
f 400 407 408
f 400 408 401
f 401 408 409
f 401 409 402
f 402 409 410
f 402 410 403
f 403 410 411
f 403 411 404
f 404 411 412
f 404 412 405
f 405 412 413
f 405 413 406
f 407 414 415
f 407 415 408
f 408 415 416
f 408 416 409
f 409 416 417
f 409 417 410
f 410 417 418
f 410 418 411
f 411 418 419
f 411 419 412
f 412 419 420
f 412 420 413
f 414 421 422
f 414 422 415
f 415 422 423
f 415 423 416
f 416 423 424
f 416 424 417
f 417 424 425
f 417 425 418
f 418 425 426
f 418 426 419
f 419 426 427
f 419 427 420
f 421 428 429
f 421 429 422
f 422 429 430
f 422 430 423
f 423 430 431
f 423 431 424
f 424 431 432
f 424 432 425
f 425 432 433
f 425 433 426
f 426 433 434
f 426 434 427
f 428 435 436
f 428 436 429
f 429 436 437
f 429 437 430
f 430 437 438
f 430 438 431
f 431 438 439
f 431 439 432
f 432 439 440
f 432 440 433
f 433 440 441
f 433 441 434
f 435 442 443
f 435 443 436
f 436 443 444
f 436 444 437
f 437 444 445
f 437 445 438
f 438 445 446
f 438 446 439
f 439 446 447
f 439 447 440
f 440 447 448
f 440 448 441
f 442 449 450
f 442 450 443
f 443 450 451
f 443 451 444
f 444 451 452
f 444 452 445
f 445 452 453
f 445 453 446
f 446 453 454
f 446 454 447
f 447 454 455
f 447 455 448
f 449 456 457
f 449 457 450
f 450 457 458
f 450 458 451
f 451 458 459
f 451 459 452
f 452 459 460
f 452 460 453
f 453 460 461
f 453 461 454
f 454 461 462
f 454 462 455
f 456 463 464
f 456 464 457
f 457 464 465
f 457 465 458
f 458 465 466
f 458 466 459
f 459 466 467
f 459 467 460
f 460 467 468
f 460 468 461
f 461 468 469
f 461 469 462
f 463 470 471
f 463 471 464
f 464 471 472
f 464 472 465
f 465 472 473
f 465 473 466
f 466 473 474
f 466 474 467
f 467 474 475
f 467 475 468
f 468 475 476
f 468 476 469
f 470 477 478
f 470 478 471
f 471 478 479
f 471 479 472
f 472 479 480
f 472 480 473
f 473 480 481
f 473 481 474
f 474 481 482
f 474 482 475
f 475 482 483
f 475 483 476
f 477 484 485
f 477 485 478
f 478 485 486
f 478 486 479
f 479 486 487
f 479 487 480
f 480 487 488
f 480 488 481
f 481 488 489
f 481 489 482
f 482 489 490
f 482 490 483
f 484 491 492
f 484 492 485
f 485 492 493
f 485 493 486
f 486 493 494
f 486 494 487
f 487 494 495
f 487 495 488
f 488 495 496
f 488 496 489
f 489 496 497
f 489 497 490
f 491 498 499
f 491 499 492
f 492 499 500
f 492 500 493
f 493 500 501
f 493 501 494
f 494 501 502
f 494 502 495
f 495 502 503
f 495 503 496
f 496 503 504
f 496 504 497
f 498 505 506
f 498 506 499
f 499 506 507
f 499 507 500
f 500 507 508
f 500 508 501
f 501 508 509
f 501 509 502
f 502 509 510
f 502 510 503
f 503 510 511
f 503 511 504
f 505 512 513
f 505 513 506
f 506 513 514
f 506 514 507
f 507 514 515
f 507 515 508
f 508 515 516
f 508 516 509
f 509 516 517
f 509 517 510
f 510 517 518
f 510 518 511
f 512 519 520
f 512 520 513
f 513 520 521
f 513 521 514
f 514 521 522
f 514 522 515
f 515 522 523
f 515 523 516
f 516 523 524
f 516 524 517
f 517 524 525
f 517 525 518
f 519 526 527
f 519 527 520
f 520 527 528
f 520 528 521
f 521 528 529
f 521 529 522
f 522 529 530
f 522 530 523
f 523 530 531
f 523 531 524
f 524 531 532
f 524 532 525
f 526 533 534
f 526 534 527
f 527 534 535
f 527 535 528
f 528 535 536
f 528 536 529
f 529 536 537
f 529 537 530
f 530 537 538
f 530 538 531
f 531 538 539
f 531 539 532
f 533 540 541
f 533 541 534
f 534 541 542
f 534 542 535
f 535 542 543
f 535 543 536
f 536 543 544
f 536 544 537
f 537 544 545
f 537 545 538
f 538 545 546
f 538 546 539
f 540 547 548
f 540 548 541
f 541 548 549
f 541 549 542
f 542 549 550
f 542 550 543
f 543 550 551
f 543 551 544
f 544 551 552
f 544 552 545
f 545 552 553
f 545 553 546
f 547 554 555
f 547 555 548
f 548 555 556
f 548 556 549
f 549 556 557
f 549 557 550
f 550 557 558
f 550 558 551
f 551 558 559
f 551 559 552
f 552 559 560
f 552 560 553
f 554 561 562
f 554 562 555
f 555 562 563
f 555 563 556
f 556 563 564
f 556 564 557
f 557 564 565
f 557 565 558
f 558 565 566
f 558 566 559
f 559 566 567
f 559 567 560
f 561 568 569
f 561 569 562
f 562 569 570
f 562 570 563
f 563 570 571
f 563 571 564
f 564 571 572
f 564 572 565
f 565 572 573
f 565 573 566
f 566 573 574
f 566 574 567
f 568 575 576
f 568 576 569
f 569 576 577
f 569 577 570
f 570 577 578
f 570 578 571
f 571 578 579
f 571 579 572
f 572 579 580
f 572 580 573
f 573 580 581
f 573 581 574
f 575 582 583
f 575 583 576
f 576 583 584
f 576 584 577
f 577 584 585
f 577 585 578
f 578 585 586
f 578 586 579
f 579 586 587
f 579 587 580
f 580 587 588
f 580 588 581
f 582 589 590
f 582 590 583
f 583 590 591
f 583 591 584
f 584 591 592
f 584 592 585
f 585 592 593
f 585 593 586
f 586 593 594
f 586 594 587
f 587 594 595
f 587 595 588
f 589 596 597
f 589 597 590
f 590 597 598
f 590 598 591
f 591 598 599
f 591 599 592
f 592 599 600
f 592 600 593
f 593 600 601
f 593 601 594
f 594 601 602
f 594 602 595
f 596 603 604
f 596 604 597
f 597 604 605
f 597 605 598
f 598 605 606
f 598 606 599
f 599 606 607
f 599 607 600
f 600 607 608
f 600 608 601
f 601 608 609
f 601 609 602
f 603 610 611
f 603 611 604
f 604 611 612
f 604 612 605
f 605 612 613
f 605 613 606
f 606 613 614
f 606 614 607
f 607 614 615
f 607 615 608
f 608 615 616
f 608 616 609
f 610 617 618
f 610 618 611
f 611 618 619
f 611 619 612
f 612 619 620
f 612 620 613
f 613 620 621
f 613 621 614
f 614 621 622
f 614 622 615
f 615 622 623
f 615 623 616
f 617 624 625
f 617 625 618
f 618 625 626
f 618 626 619
f 619 626 627
f 619 627 620
f 620 627 628
f 620 628 621
f 621 628 629
f 621 629 622
f 622 629 630
f 622 630 623
f 624 631 632
f 624 632 625
f 625 632 633
f 625 633 626
f 626 633 634
f 626 634 627
f 627 634 635
f 627 635 628
f 628 635 636
f 628 636 629
f 629 636 637
f 629 637 630
f 631 638 639
f 631 639 632
f 632 639 640
f 632 640 633
f 633 640 641
f 633 641 634
f 634 641 642
f 634 642 635
f 635 642 643
f 635 643 636
f 636 643 644
f 636 644 637
f 638 645 646
f 638 646 639
f 639 646 647
f 639 647 640
f 640 647 648
f 640 648 641
f 641 648 649
f 641 649 642
f 642 649 650
f 642 650 643
f 643 650 651
f 643 651 644
f 645 652 653
f 645 653 646
f 646 653 654
f 646 654 647
f 647 654 655
f 647 655 648
f 648 655 656
f 648 656 649
f 649 656 657
f 649 657 650
f 650 657 658
f 650 658 651
f 652 659 660
f 652 660 653
f 653 660 661
f 653 661 654
f 654 661 662
f 654 662 655
f 655 662 663
f 655 663 656
f 656 663 664
f 656 664 657
f 657 664 665
f 657 665 658
f 659 666 667
f 659 667 660
f 660 667 668
f 660 668 661
f 661 668 669
f 661 669 662
f 662 669 670
f 662 670 663
f 663 670 671
f 663 671 664
f 664 671 672
f 664 672 665
f 666 1 2
f 666 2 667
f 667 2 3
f 667 3 668
f 668 3 4
f 668 4 669
f 669 4 5
f 669 5 670
f 670 5 6
f 670 6 671
f 671 6 7
f 671 7 672
