# Medium-poly Staunton-style piece
v 0.0 0 0.0
v 0.45 0 0.0
v 0.5 0.25 0.0
v 0.4 0.7 0.0
v 0.15 1.1 0.0
v 0.0 1.3 0.0
v 0.0 0 0.0
v 0.44903651545737155 0 0.02943140815356438
v 0.49892946161930174 0.25 0.03270156461507153
v 0.3991435692954414 0.7 0.026161251692057227
v 0.14967883848579053 1.1 0.009810469384521459
v 0.0 1.3 0.0
v 0.0 0 0.0
v 0.4461501876182147 0 0.05873678649902321
v 0.4957224306869052 0.25 0.06526309611002579
v 0.39657794454952416 0.7 0.052210476888020635
v 0.14871672920607154 1.1 0.019578928833007735
v 0.0 1.3 0.0
v 0.0 0 0.0
v 0.4413533761814537 0 0.08779064490725771
v 0.4903926402016152 0.25 0.09754516100806412
v 0.3923141121612922 0.7 0.0780361288064513
v 0.14711779206048456 1.1 0.029263548302419236
v 0.0 1.3 0.0
v 0.0 0 0.0
v 0.43466662183008076 0 0.11646857029613433
v 0.48296291314453416 0.25 0.12940952255126037
v 0.38637033051562736 0.7 0.1035276180410083
v 0.14488887394336025 1.1 0.03882285676537811
v 0.0 1.3 0.0
v 0.0 0 0.0
v 0.42611855827279754 0 0.14464775938642271
v 0.47346506474755284 0.25 0.1607197326515808
v 0.3787720517980423 0.7 0.12857578612126463
v 0.14203951942426585 1.1 0.04821591979547424
v 0.0 1.3 0.0
v 0.0 0 0.0
v 0.415745789630079 0 0.1722075445642904
v 0.46193976625564337 0.25 0.1913417161825449
v 0.36955181300451473 0.7 0.15307337294603593
v 0.13858192987669302 1.1 0.05740251485476346
v 0.0 1.3 0.0
v 0.0 0 0.0
v 0.40359273368970977 0 0.19902991059855057
v 0.4484363707663442 0.25 0.22114434510950062
v 0.35874909661307536 0.7 0.1769154760876005
v 0.13453091122990324 1.1 0.06634330353285019
v 0.0 1.3 0.0
v 0.0 0 0.0
v 0.38971143170299744 0 0.22499999999999998
v 0.43301270189221935 0.25 0.24999999999999997
v 0.3464101615137755 0.7 0.19999999999999998
v 0.1299038105676658 1.1 0.07499999999999998
v 0.0 1.3 0.0
v 0.0 0 0.0
v 0.37416132553614534 0 0.250006604858821
v 0.4157348061512726 0.25 0.2777851165098011
v 0.3325878449210181 0.7 0.22222809320784087
v 0.12472044184538178 1.1 0.08333553495294033
v 0.0 1.3 0.0
v 0.0 0 0.0
v 0.3570090031310558 0 0.2739426430539243
v 0.3966766701456176 0.25 0.30438071450436033
v 0.31734133611649407 0.7 0.24350457160348826
v 0.11900300104368527 1.1 0.0913142143513081
v 0.0 1.3 0.0
v 0.0 0 0.0
v 0.33832791336553986 0 0.296705616795031
v 0.3759199037394887 0.25 0.3296729075500344
v 0.30073592299159096 0.7 0.26373832604002756
v 0.1127759711218466 1.1 0.09890187226501032
v 0.0 1.3 0.0
v 0.0 0 0.0
v 0.3181980515339464 0 0.31819805153394637
v 0.3535533905932738 0.25 0.35355339059327373
v 0.28284271247461906 0.7 0.282842712474619
v 0.10606601717798213 1.1 0.10606601717798211
v 0.0 1.3 0.0
v 0.0 0 0.0
v 0.296705616795031 0 0.33832791336553986
v 0.3296729075500344 0.25 0.3759199037394887
v 0.26373832604002756 0.7 0.30073592299159096
v 0.09890187226501032 1.1 0.1127759711218466
v 0.0 1.3 0.0
v 0.0 0 0.0
v 0.2739426430539243 0 0.3570090031310558
v 0.30438071450436033 0.25 0.3966766701456176
v 0.24350457160348826 0.7 0.31734133611649407
v 0.0913142143513081 1.1 0.11900300104368527
v 0.0 1.3 0.0
v 0.0 0 0.0
v 0.2500066048588211 0 0.37416132553614534
v 0.2777851165098012 0.25 0.41573480615127256
v 0.22222809320784098 0.7 0.33258784492101806
v 0.08333553495294035 1.1 0.12472044184538177
v 0.0 1.3 0.0
v 0.0 0 0.0
v 0.22500000000000006 0 0.3897114317029974
v 0.25000000000000006 0.25 0.4330127018922193
v 0.20000000000000007 0.7 0.34641016151377546
v 0.07500000000000001 1.1 0.12990381056766578
v 0.0 1.3 0.0
v 0.0 0 0.0
v 0.19902991059855057 0 0.40359273368970977
v 0.22114434510950062 0.25 0.4484363707663442
v 0.1769154760876005 0.7 0.35874909661307536
v 0.06634330353285019 1.1 0.13453091122990324
v 0.0 1.3 0.0
v 0.0 0 0.0
v 0.17220754456429044 0 0.415745789630079
v 0.19134171618254492 0.25 0.46193976625564337
v 0.15307337294603596 0.7 0.36955181300451473
v 0.05740251485476347 1.1 0.13858192987669302
v 0.0 1.3 0.0
v 0.0 0 0.0
v 0.14464775938642277 0 0.42611855827279754
v 0.16071973265158085 0.25 0.4734650647475528
v 0.1285757861212647 0.7 0.37877205179804224
v 0.04821591979547425 1.1 0.14203951942426582
v 0.0 1.3 0.0
v 0.0 0 0.0
v 0.11646857029613433 0 0.43466662183008076
v 0.12940952255126037 0.25 0.48296291314453416
v 0.1035276180410083 0.7 0.38637033051562736
v 0.03882285676537811 1.1 0.14488887394336025
v 0.0 1.3 0.0
v 0.0 0 0.0
v 0.08779064490725776 0 0.4413533761814537
v 0.09754516100806417 0.25 0.4903926402016152
v 0.07803612880645133 0.7 0.3923141121612922
v 0.02926354830241925 1.1 0.14711779206048456
v 0.0 1.3 0.0
v 0.0 0 0.0
v 0.05873678649902327 0 0.4461501876182147
v 0.06526309611002586 0.25 0.4957224306869052
v 0.05221047688802069 0.7 0.39657794454952416
v 0.019578928833007755 1.1 0.14871672920607154
v 0.0 1.3 0.0
v 0.0 0 0.0
v 0.029431408153564473 0 0.44903651545737155
v 0.032701564615071635 0.25 0.49892946161930174
v 0.02616125169205731 0.7 0.3991435692954414
v 0.00981046938452149 1.1 0.14967883848579053
v 0.0 1.3 0.0
v 0.0 0 0.0
v 2.7554552980815448e-17 0 0.45
v 3.061616997868383e-17 0.25 0.5
v 2.4492935982947065e-17 0.7 0.4
v 9.184850993605149e-18 1.1 0.15
v 0.0 1.3 0.0
v -0.0 0 0.0
v -0.029431408153564417 0 0.44903651545737155
v -0.03270156461507157 0.25 0.49892946161930174
v -0.02616125169205726 0.7 0.3991435692954414
v -0.00981046938452147 1.1 0.14967883848579053
v -0.0 1.3 0.0
v -0.0 0 0.0
v -0.058736786499023225 0 0.4461501876182147
v -0.0652630961100258 0.25 0.4957224306869052
v -0.05221047688802064 0.7 0.39657794454952416
v -0.019578928833007738 1.1 0.14871672920607154
v -0.0 1.3 0.0
v -0.0 0 0.0
v -0.08779064490725769 0 0.4413533761814537
v -0.0975451610080641 0.25 0.4903926402016152
v -0.07803612880645128 0.7 0.3923141121612922
v -0.02926354830241923 1.1 0.14711779206048456
v -0.0 1.3 0.0
v -0.0 0 0.0
v -0.11646857029613429 0 0.43466662183008076
v -0.12940952255126031 0.25 0.48296291314453416
v -0.10352761804100825 0.7 0.38637033051562736
v -0.03882285676537809 1.1 0.14488887394336025
v -0.0 1.3 0.0
v -0.0 0 0.0
v -0.14464775938642271 0 0.42611855827279754
v -0.1607197326515808 0.25 0.47346506474755284
v -0.12857578612126463 0.7 0.3787720517980423
v -0.04821591979547424 1.1 0.14203951942426585
v -0.0 1.3 0.0
v -0.0 0 0.0
v -0.17220754456429027 0 0.4157457896300791
v -0.19134171618254475 0.25 0.4619397662556434
v -0.15307337294603582 0.7 0.3695518130045148
v -0.05740251485476342 1.1 0.13858192987669302
v -0.0 1.3 0.0
v -0.0 0 0.0
v -0.19902991059855052 0 0.40359273368970977
v -0.22114434510950057 0.25 0.4484363707663442
v -0.17691547608760047 0.7 0.35874909661307536
v -0.06634330353285017 1.1 0.13453091122990324
v -0.0 1.3 0.0
v -0.0 0 0.0
v -0.2249999999999999 0 0.38971143170299744
v -0.2499999999999999 0.25 0.43301270189221935
v -0.19999999999999993 0.7 0.3464101615137755
v -0.07499999999999997 1.1 0.1299038105676658
v -0.0 1.3 0.0
v -0.0 0 0.0
v -0.25000660485882104 0 0.37416132553614534
v -0.27778511650980114 0.25 0.41573480615127256
v -0.22222809320784093 0.7 0.33258784492101806
v -0.08333553495294034 1.1 0.12472044184538177
v -0.0 1.3 0.0
v -0.0 0 0.0
v -0.2739426430539243 0 0.3570090031310558
v -0.30438071450436033 0.25 0.3966766701456176
v -0.24350457160348826 0.7 0.31734133611649407
v -0.0913142143513081 1.1 0.11900300104368527
v -0.0 1.3 0.0
v -0.0 0 0.0
v -0.296705616795031 0 0.33832791336553986
v -0.3296729075500344 0.25 0.3759199037394887
v -0.26373832604002756 0.7 0.30073592299159096
v -0.09890187226501032 1.1 0.1127759711218466
v -0.0 1.3 0.0
v -0.0 0 0.0
v -0.31819805153394637 0 0.3181980515339464
v -0.35355339059327373 0.25 0.3535533905932738
v -0.282842712474619 0.7 0.28284271247461906
v -0.10606601717798211 1.1 0.10606601717798213
v -0.0 1.3 0.0
v -0.0 0 0.0
v -0.3383279133655398 0 0.29670561679503105
v -0.37591990373948864 0.25 0.3296729075500345
v -0.3007359229915909 0.7 0.2637383260400276
v -0.11277597112184659 1.1 0.09890187226501033
v -0.0 1.3 0.0
v -0.0 0 0.0
v -0.35700900313105577 0 0.2739426430539244
v -0.3966766701456175 0.25 0.30438071450436044
v -0.31734133611649407 0.7 0.24350457160348837
v -0.11900300104368525 1.1 0.09131421435130813
v -0.0 1.3 0.0
v -0.0 0 0.0
v -0.3741613255361453 0 0.25000660485882115
v -0.4157348061512725 0.25 0.27778511650980126
v -0.332587844921018 0.7 0.222228093207841
v -0.12472044184538175 1.1 0.08333553495294037
v -0.0 1.3 0.0
v -0.0 0 0.0
v -0.38971143170299744 0 0.22499999999999998
v -0.43301270189221935 0.25 0.24999999999999997
v -0.3464101615137755 0.7 0.19999999999999998
v -0.1299038105676658 1.1 0.07499999999999998
v -0.0 1.3 0.0
v -0.0 0 0.0
v -0.40359273368970966 0 0.19902991059855077
v -0.4484363707663441 0.25 0.22114434510950085
v -0.3587490966130753 0.7 0.1769154760876007
v -0.1345309112299032 1.1 0.06634330353285026
v -0.0 1.3 0.0
v -0.0 0 0.0
v -0.415745789630079 0 0.17220754456429047
v -0.46193976625564337 0.25 0.19134171618254495
v -0.36955181300451473 0.7 0.15307337294603596
v -0.13858192987669302 1.1 0.057402514854763484
v -0.0 1.3 0.0
v -0.0 0 0.0
v -0.42611855827279754 0 0.1446477593864228
v -0.4734650647475528 0.25 0.16071973265158088
v -0.37877205179804224 0.7 0.12857578612126472
v -0.14203951942426582 1.1 0.04821591979547426
v -0.0 1.3 0.0
v -0.0 0 0.0
v -0.4346666218300807 0 0.11646857029613446
v -0.4829629131445341 0.25 0.1294095225512605
v -0.3863703305156273 0.7 0.1035276180410084
v -0.14488887394336022 1.1 0.03882285676537815
v -0.0 1.3 0.0
v -0.0 0 0.0
v -0.4413533761814537 0 0.08779064490725767
v -0.4903926402016152 0.25 0.09754516100806408
v -0.3923141121612922 0.7 0.07803612880645128
v -0.14711779206048456 1.1 0.029263548302419222
v -0.0 1.3 0.0
v -0.0 0 0.0
v -0.4461501876182147 0 0.0587367864990234
v -0.4957224306869052 0.25 0.065263096110026
v -0.39657794454952416 0.7 0.0522104768880208
v -0.14871672920607154 1.1 0.019578928833007797
v -0.0 1.3 0.0
v -0.0 0 0.0
v -0.44903651545737155 0 0.029431408153564403
v -0.49892946161930174 0.25 0.03270156461507156
v -0.3991435692954414 0.7 0.026161251692057248
v -0.14967883848579053 1.1 0.009810469384521467
v -0.0 1.3 0.0
v -0.0 0 0.0
v -0.45 0 5.5109105961630896e-17
v -0.5 0.25 6.123233995736766e-17
v -0.4 0.7 4.898587196589413e-17
v -0.15 1.1 1.8369701987210297e-17
v -0.0 1.3 0.0
v -0.0 0 -0.0
v -0.44903651545737155 0 -0.029431408153564292
v -0.49892946161930174 0.25 -0.032701564615071434
v -0.3991435692954414 0.7 -0.026161251692057148
v -0.14967883848579053 1.1 -0.009810469384521429
v -0.0 1.3 -0.0
v -0.0 0 -0.0
v -0.4461501876182147 0 -0.058736786499023294
v -0.4957224306869052 0.25 -0.06526309611002588
v -0.39657794454952416 0.7 -0.05221047688802071
v -0.14871672920607154 1.1 -0.019578928833007766
v -0.0 1.3 -0.0
v -0.0 0 -0.0
v -0.44135337618145376 0 -0.08779064490725756
v -0.49039264020161527 0.25 -0.09754516100806396
v -0.39231411216129225 0.7 -0.07803612880645117
v -0.1471177920604846 1.1 -0.029263548302419187
v -0.0 1.3 -0.0
v -0.0 0 -0.0
v -0.43466662183008076 0 -0.11646857029613436
v -0.48296291314453416 0.25 -0.1294095225512604
v -0.38637033051562736 0.7 -0.10352761804100832
v -0.14488887394336025 1.1 -0.03882285676537812
v -0.0 1.3 -0.0
v -0.0 0 -0.0
v -0.42611855827279754 0 -0.1446477593864227
v -0.47346506474755284 0.25 -0.16071973265158077
v -0.3787720517980423 0.7 -0.1285757861212646
v -0.14203951942426585 1.1 -0.04821591979547423
v -0.0 1.3 -0.0
v -0.0 0 -0.0
v -0.4157457896300791 0 -0.17220754456429035
v -0.4619397662556434 0.25 -0.19134171618254484
v -0.3695518130045148 0.7 -0.15307337294603587
v -0.13858192987669302 1.1 -0.05740251485476345
v -0.0 1.3 -0.0
v -0.0 0 -0.0
v -0.4035927336897097 0 -0.19902991059855066
v -0.44843637076634413 0.25 -0.22114434510950073
v -0.3587490966130753 0.7 -0.1769154760876006
v -0.13453091122990324 1.1 -0.06634330353285021
v -0.0 1.3 -0.0
v -0.0 0 -0.0
v -0.3897114317029975 0 -0.22499999999999987
v -0.4330127018922194 0.25 -0.24999999999999986
v -0.34641016151377557 0.7 -0.1999999999999999
v -0.1299038105676658 1.1 -0.07499999999999996
v -0.0 1.3 -0.0
v -0.0 0 -0.0
v -0.37416132553614545 0 -0.25000660485882087
v -0.41573480615127273 0.25 -0.277785116509801
v -0.3325878449210182 0.7 -0.2222280932078408
v -0.12472044184538181 1.1 -0.08333553495294029
v -0.0 1.3 -0.0
v -0.0 0 -0.0
v -0.3570090031310558 0 -0.2739426430539243
v -0.3966766701456176 0.25 -0.30438071450436033
v -0.31734133611649407 0.7 -0.24350457160348826
v -0.11900300104368527 1.1 -0.0913142143513081
v -0.0 1.3 -0.0
v -0.0 0 -0.0
v -0.33832791336553986 0 -0.296705616795031
v -0.37591990373948875 0.25 -0.3296729075500344
v -0.300735922991591 0.7 -0.26373832604002756
v -0.11277597112184662 1.1 -0.09890187226501032
v -0.0 1.3 -0.0
v -0.0 0 -0.0
v -0.3181980515339466 0 -0.3181980515339462
v -0.35355339059327395 0.25 -0.35355339059327356
v -0.2828427124746192 0.7 -0.28284271247461884
v -0.10606601717798218 1.1 -0.10606601717798207
v -0.0 1.3 -0.0
v -0.0 0 -0.0
v -0.2967056167950311 0 -0.3383279133655398
v -0.32967290755003453 0.25 -0.37591990373948864
v -0.2637383260400276 0.7 -0.3007359229915909
v -0.09890187226501036 1.1 -0.11277597112184659
v -0.0 1.3 -0.0
v -0.0 0 -0.0
v -0.2739426430539244 0 -0.3570090031310557
v -0.30438071450436044 0.25 -0.39667667014561747
v -0.24350457160348837 0.7 -0.317341336116494
v -0.09131421435130813 1.1 -0.11900300104368523
v -0.0 1.3 -0.0
v -0.0 0 -0.0
v -0.250006604858821 0 -0.37416132553614534
v -0.2777851165098011 0.25 -0.4157348061512726
v -0.22222809320784087 0.7 -0.3325878449210181
v -0.08333553495294033 1.1 -0.12472044184538178
v -0.0 1.3 -0.0
v -0.0 0 -0.0
v -0.2250000000000002 0 -0.38971143170299727
v -0.2500000000000002 0.25 -0.4330127018922192
v -0.20000000000000018 0.7 -0.34641016151377535
v -0.07500000000000007 1.1 -0.12990381056766576
v -0.0 1.3 -0.0
v -0.0 0 -0.0
v -0.1990299105985506 0 -0.4035927336897097
v -0.22114434510950068 0.25 -0.44843637076634413
v -0.17691547608760055 0.7 -0.3587490966130753
v -0.0663433035328502 1.1 -0.13453091122990324
v -0.0 1.3 -0.0
v -0.0 0 -0.0
v -0.17220754456429027 0 -0.4157457896300791
v -0.19134171618254475 0.25 -0.4619397662556434
v -0.15307337294603582 0.7 -0.3695518130045148
v -0.05740251485476342 1.1 -0.13858192987669302
v -0.0 1.3 -0.0
v -0.0 0 -0.0
v -0.14464775938642283 0 -0.42611855827279754
v -0.1607197326515809 0.25 -0.4734650647475528
v -0.12857578612126472 0.7 -0.37877205179804224
v -0.04821591979547427 1.1 -0.14203951942426582
v -0.0 1.3 -0.0
v -0.0 0 -0.0
v -0.11646857029613429 0 -0.43466662183008076
v -0.12940952255126031 0.25 -0.48296291314453416
v -0.10352761804100825 0.7 -0.38637033051562736
v -0.03882285676537809 1.1 -0.14488887394336025
v -0.0 1.3 -0.0
v -0.0 0 -0.0
v -0.0877906449072579 0 -0.44135337618145365
v -0.09754516100806433 0.25 -0.49039264020161516
v -0.07803612880645147 0.7 -0.39231411216129214
v -0.0292635483024193 1.1 -0.14711779206048453
v -0.0 1.3 -0.0
v -0.0 0 -0.0
v -0.05873678649902323 0 -0.4461501876182147
v -0.06526309611002581 0.25 -0.4957224306869052
v -0.052210476888020656 0.7 -0.39657794454952416
v -0.019578928833007745 1.1 -0.14871672920607154
v -0.0 1.3 -0.0
v -0.0 0 -0.0
v -0.02943140815356423 0 -0.44903651545737155
v -0.032701564615071364 0.25 -0.49892946161930174
v -0.026161251692057092 0.7 -0.3991435692954414
v -0.009810469384521408 1.1 -0.14967883848579053
v -0.0 1.3 -0.0
v -0.0 0 -0.0
v -8.266365894244634e-17 0 -0.45
v -9.184850993605148e-17 0.25 -0.5
v -7.347880794884119e-17 0.7 -0.4
v -2.7554552980815445e-17 1.1 -0.15
v -0.0 1.3 -0.0
v 0.0 0 -0.0
v 0.029431408153564067 0 -0.4490365154573716
v 0.032701564615071184 0.25 -0.4989294616193018
v 0.02616125169205695 0.7 -0.3991435692954415
v 0.009810469384521354 1.1 -0.14967883848579053
v 0.0 1.3 -0.0
v 0.0 0 -0.0
v 0.05873678649902307 0 -0.44615018761821473
v 0.06526309611002563 0.25 -0.49572243068690525
v 0.05221047688802051 0.7 -0.3965779445495242
v 0.01957892883300769 1.1 -0.14871672920607157
v 0.0 1.3 -0.0
v 0.0 0 -0.0
v 0.08779064490725774 0 -0.4413533761814537
v 0.09754516100806415 0.25 -0.4903926402016152
v 0.07803612880645133 0.7 -0.3923141121612922
v 0.029263548302419243 1.1 -0.14711779206048456
v 0.0 1.3 -0.0
v 0.0 0 -0.0
v 0.11646857029613414 0 -0.4346666218300808
v 0.12940952255126015 0.25 -0.4829629131445342
v 0.10352761804100813 0.7 -0.3863703305156274
v 0.03882285676537804 1.1 -0.14488887394336025
v 0.0 1.3 -0.0
v 0.0 0 -0.0
v 0.14464775938642266 0 -0.42611855827279754
v 0.16071973265158074 0.25 -0.47346506474755284
v 0.1285757861212646 0.7 -0.3787720517980423
v 0.04821591979547422 1.1 -0.14203951942426585
v 0.0 1.3 -0.0
v 0.0 0 -0.0
v 0.17220754456429013 0 -0.41574578963007913
v 0.19134171618254459 0.25 -0.4619397662556435
v 0.15307337294603568 0.7 -0.3695518130045148
v 0.05740251485476337 1.1 -0.13858192987669304
v 0.0 1.3 -0.0
v 0.0 0 -0.0
v 0.19902991059855046 0 -0.4035927336897098
v 0.2211443451095005 0.25 -0.44843637076634424
v 0.17691547608760042 0.7 -0.3587490966130754
v 0.06634330353285015 1.1 -0.13453091122990327
v 0.0 1.3 -0.0
v 0.0 0 -0.0
v 0.22500000000000006 0 -0.3897114317029974
v 0.25000000000000006 0.25 -0.4330127018922193
v 0.20000000000000007 0.7 -0.34641016151377546
v 0.07500000000000001 1.1 -0.12990381056766578
v 0.0 1.3 -0.0
v 0.0 0 -0.0
v 0.2500066048588208 0 -0.37416132553614545
v 0.2777851165098009 0.25 -0.41573480615127273
v 0.22222809320784076 0.7 -0.3325878449210182
v 0.08333553495294027 1.1 -0.12472044184538181
v 0.0 1.3 -0.0
v 0.0 0 -0.0
v 0.27394264305392396 0 -0.3570090031310561
v 0.30438071450435994 0.25 -0.39667667014561786
v 0.24350457160348796 0.7 -0.3173413361164943
v 0.09131421435130797 1.1 -0.11900300104368536
v 0.0 1.3 -0.0
v 0.0 0 -0.0
v 0.2967056167950311 0 -0.33832791336553975
v 0.32967290755003453 0.25 -0.3759199037394886
v 0.2637383260400276 0.7 -0.3007359229915909
v 0.09890187226501036 1.1 -0.11277597112184656
v 0.0 1.3 -0.0
v 0.0 0 -0.0
v 0.3181980515339463 0 -0.3181980515339465
v 0.3535533905932737 0.25 -0.35355339059327384
v 0.28284271247461895 0.7 -0.28284271247461906
v 0.1060660171779821 1.1 -0.10606601717798216
v 0.0 1.3 -0.0
v 0.0 0 -0.0
v 0.33832791336553986 0 -0.29670561679503094
v 0.37591990373948875 0.25 -0.32967290755003437
v 0.300735922991591 0.7 -0.2637383260400275
v 0.11277597112184662 1.1 -0.09890187226501031
v 0.0 1.3 -0.0
v 0.0 0 -0.0
v 0.3570090031310557 0 -0.2739426430539244
v 0.39667667014561747 0.25 -0.30438071450436044
v 0.317341336116494 0.7 -0.24350457160348837
v 0.11900300104368523 1.1 -0.09131421435130813
v 0.0 1.3 -0.0
v 0.0 0 -0.0
v 0.3741613255361452 0 -0.2500066048588213
v 0.4157348061512724 0.25 -0.2777851165098015
v 0.33258784492101795 0.7 -0.2222280932078412
v 0.12472044184538171 1.1 -0.08333553495294044
v 0.0 1.3 -0.0
v 0.0 0 -0.0
v 0.38971143170299727 0 -0.2250000000000002
v 0.4330127018922192 0.25 -0.2500000000000002
v 0.34641016151377535 0.7 -0.20000000000000018
v 0.12990381056766576 1.1 -0.07500000000000007
v 0.0 1.3 -0.0
v 0.0 0 -0.0
v 0.4035927336897097 0 -0.19902991059855063
v 0.44843637076634413 0.25 -0.2211443451095007
v 0.3587490966130753 0.7 -0.17691547608760058
v 0.13453091122990324 1.1 -0.06634330353285021
v 0.0 1.3 -0.0
v 0.0 0 -0.0
v 0.4157457896300791 0 -0.1722075445642903
v 0.4619397662556434 0.25 -0.19134171618254478
v 0.3695518130045148 0.7 -0.15307337294603585
v 0.13858192987669302 1.1 -0.05740251485476343
v 0.0 1.3 -0.0
v 0.0 0 -0.0
v 0.42611855827279754 0 -0.14464775938642285
v 0.4734650647475528 0.25 -0.16071973265158093
v 0.37877205179804224 0.7 -0.12857578612126475
v 0.14203951942426582 1.1 -0.04821591979547428
v 0.0 1.3 -0.0
v 0.0 0 -0.0
v 0.43466662183008065 0 -0.11646857029613471
v 0.48296291314453405 0.25 -0.12940952255126079
v 0.38637033051562725 0.7 -0.10352761804100863
v 0.1448888739433602 1.1 -0.038822856765378236
v 0.0 1.3 -0.0
v 0.0 0 -0.0
v 0.44135337618145365 0 -0.08779064490725792
v 0.49039264020161516 0.25 -0.09754516100806436
v 0.39231411216129214 0.7 -0.0780361288064515
v 0.14711779206048453 1.1 -0.029263548302419305
v 0.0 1.3 -0.0
v 0.0 0 -0.0
v 0.4461501876182147 0 -0.05873678649902326
v 0.4957224306869052 0.25 -0.06526309611002584
v 0.39657794454952416 0.7 -0.05221047688802068
v 0.14871672920607154 1.1 -0.019578928833007752
v 0.0 1.3 -0.0
v 0.0 0 -0.0
v 0.44903651545737155 0 -0.02943140815356426
v 0.49892946161930174 0.25 -0.0327015646150714
v 0.3991435692954414 0.7 -0.02616125169205712
v 0.14967883848579053 1.1 -0.009810469384521419
v 0.0 1.3 -0.0
f 1 7 8
f 1 8 2
f 2 8 9
f 2 9 3
f 3 9 10
f 3 10 4
f 4 10 11
f 4 11 5
f 5 11 12
f 5 12 6
f 7 13 14
f 7 14 8
f 8 14 15
f 8 15 9
f 9 15 16
f 9 16 10
f 10 16 17
f 10 17 11
f 11 17 18
f 11 18 12
f 13 19 20
f 13 20 14
f 14 20 21
f 14 21 15
f 15 21 22
f 15 22 16
f 16 22 23
f 16 23 17
f 17 23 24
f 17 24 18
f 19 25 26
f 19 26 20
f 20 26 27
f 20 27 21
f 21 27 28
f 21 28 22
f 22 28 29
f 22 29 23
f 23 29 30
f 23 30 24
f 25 31 32
f 25 32 26
f 26 32 33
f 26 33 27
f 27 33 34
f 27 34 28
f 28 34 35
f 28 35 29
f 29 35 36
f 29 36 30
f 31 37 38
f 31 38 32
f 32 38 39
f 32 39 33
f 33 39 40
f 33 40 34
f 34 40 41
f 34 41 35
f 35 41 42
f 35 42 36
f 37 43 44
f 37 44 38
f 38 44 45
f 38 45 39
f 39 45 46
f 39 46 40
f 40 46 47
f 40 47 41
f 41 47 48
f 41 48 42
f 43 49 50
f 43 50 44
f 44 50 51
f 44 51 45
f 45 51 52
f 45 52 46
f 46 52 53
f 46 53 47
f 47 53 54
f 47 54 48
f 49 55 56
f 49 56 50
f 50 56 57
f 50 57 51
f 51 57 58
f 51 58 52
f 52 58 59
f 52 59 53
f 53 59 60
f 53 60 54
f 55 61 62
f 55 62 56
f 56 62 63
f 56 63 57
f 57 63 64
f 57 64 58
f 58 64 65
f 58 65 59
f 59 65 66
f 59 66 60
f 61 67 68
f 61 68 62
f 62 68 69
f 62 69 63
f 63 69 70
f 63 70 64
f 64 70 71
f 64 71 65
f 65 71 72
f 65 72 66
f 67 73 74
f 67 74 68
f 68 74 75
f 68 75 69
f 69 75 76
f 69 76 70
f 70 76 77
f 70 77 71
f 71 77 78
f 71 78 72
f 73 79 80
f 73 80 74
f 74 80 81
f 74 81 75
f 75 81 82
f 75 82 76
f 76 82 83
f 76 83 77
f 77 83 84
f 77 84 78
f 79 85 86
f 79 86 80
f 80 86 87
f 80 87 81
f 81 87 88
f 81 88 82
f 82 88 89
f 82 89 83
f 83 89 90
f 83 90 84
f 85 91 92
f 85 92 86
f 86 92 93
f 86 93 87
f 87 93 94
f 87 94 88
f 88 94 95
f 88 95 89
f 89 95 96
f 89 96 90
f 91 97 98
f 91 98 92
f 92 98 99
f 92 99 93
f 93 99 100
f 93 100 94
f 94 100 101
f 94 101 95
f 95 101 102
f 95 102 96
f 97 103 104
f 97 104 98
f 98 104 105
f 98 105 99
f 99 105 106
f 99 106 100
f 100 106 107
f 100 107 101
f 101 107 108
f 101 108 102
f 103 109 110
f 103 110 104
f 104 110 111
f 104 111 105
f 105 111 112
f 105 112 106
f 106 112 113
f 106 113 107
f 107 113 114
f 107 114 108
f 109 115 116
f 109 116 110
f 110 116 117
f 110 117 111
f 111 117 118
f 111 118 112
f 112 118 119
f 112 119 113
f 113 119 120
f 113 120 114
f 115 121 122
f 115 122 116
f 116 122 123
f 116 123 117
f 117 123 124
f 117 124 118
f 118 124 125
f 118 125 119
f 119 125 126
f 119 126 120
f 121 127 128
f 121 128 122
f 122 128 129
f 122 129 123
f 123 129 130
f 123 130 124
f 124 130 131
f 124 131 125
f 125 131 132
f 125 132 126
f 127 133 134
f 127 134 128
f 128 134 135
f 128 135 129
f 129 135 136
f 129 136 130
f 130 136 137
f 130 137 131
f 131 137 138
f 131 138 132
f 133 139 140
f 133 140 134
f 134 140 141
f 134 141 135
f 135 141 142
f 135 142 136
f 136 142 143
f 136 143 137
f 137 143 144
f 137 144 138
f 139 145 146
f 139 146 140
f 140 146 147
f 140 147 141
f 141 147 148
f 141 148 142
f 142 148 149
f 142 149 143
f 143 149 150
f 143 150 144
f 145 151 152
f 145 152 146
f 146 152 153
f 146 153 147
f 147 153 154
f 147 154 148
f 148 154 155
f 148 155 149
f 149 155 156
f 149 156 150
f 151 157 158
f 151 158 152
f 152 158 159
f 152 159 153
f 153 159 160
f 153 160 154
f 154 160 161
f 154 161 155
f 155 161 162
f 155 162 156
f 157 163 164
f 157 164 158
f 158 164 165
f 158 165 159
f 159 165 166
f 159 166 160
f 160 166 167
f 160 167 161
f 161 167 168
f 161 168 162
f 163 169 170
f 163 170 164
f 164 170 171
f 164 171 165
f 165 171 172
f 165 172 166
f 166 172 173
f 166 173 167
f 167 173 174
f 167 174 168
f 169 175 176
f 169 176 170
f 170 176 177
f 170 177 171
f 171 177 178
f 171 178 172
f 172 178 179
f 172 179 173
f 173 179 180
f 173 180 174
f 175 181 182
f 175 182 176
f 176 182 183
f 176 183 177
f 177 183 184
f 177 184 178
f 178 184 185
f 178 185 179
f 179 185 186
f 179 186 180
f 181 187 188
f 181 188 182
f 182 188 189
f 182 189 183
f 183 189 190
f 183 190 184
f 184 190 191
f 184 191 185
f 185 191 192
f 185 192 186
f 187 193 194
f 187 194 188
f 188 194 195
f 188 195 189
f 189 195 196
f 189 196 190
f 190 196 197
f 190 197 191
f 191 197 198
f 191 198 192
f 193 199 200
f 193 200 194
f 194 200 201
f 194 201 195
f 195 201 202
f 195 202 196
f 196 202 203
f 196 203 197
f 197 203 204
f 197 204 198
f 199 205 206
f 199 206 200
f 200 206 207
f 200 207 201
f 201 207 208
f 201 208 202
f 202 208 209
f 202 209 203
f 203 209 210
f 203 210 204
f 205 211 212
f 205 212 206
f 206 212 213
f 206 213 207
f 207 213 214
f 207 214 208
f 208 214 215
f 208 215 209
f 209 215 216
f 209 216 210
f 211 217 218
f 211 218 212
f 212 218 219
f 212 219 213
f 213 219 220
f 213 220 214
f 214 220 221
f 214 221 215
f 215 221 222
f 215 222 216
f 217 223 224
f 217 224 218
f 218 224 225
f 218 225 219
f 219 225 226
f 219 226 220
f 220 226 227
f 220 227 221
f 221 227 228
f 221 228 222
f 223 229 230
f 223 230 224
f 224 230 231
f 224 231 225
f 225 231 232
f 225 232 226
f 226 232 233
f 226 233 227
f 227 233 234
f 227 234 228
f 229 235 236
f 229 236 230
f 230 236 237
f 230 237 231
f 231 237 238
f 231 238 232
f 232 238 239
f 232 239 233
f 233 239 240
f 233 240 234
f 235 241 242
f 235 242 236
f 236 242 243
f 236 243 237
f 237 243 244
f 237 244 238
f 238 244 245
f 238 245 239
f 239 245 246
f 239 246 240
f 241 247 248
f 241 248 242
f 242 248 249
f 242 249 243
f 243 249 250
f 243 250 244
f 244 250 251
f 244 251 245
f 245 251 252
f 245 252 246
f 247 253 254
f 247 254 248
f 248 254 255
f 248 255 249
f 249 255 256
f 249 256 250
f 250 256 257
f 250 257 251
f 251 257 258
f 251 258 252
f 253 259 260
f 253 260 254
f 254 260 261
f 254 261 255
f 255 261 262
f 255 262 256
f 256 262 263
f 256 263 257
f 257 263 264
f 257 264 258
f 259 265 266
f 259 266 260
f 260 266 267
f 260 267 261
f 261 267 268
f 261 268 262
f 262 268 269
f 262 269 263
f 263 269 270
f 263 270 264
f 265 271 272
f 265 272 266
f 266 272 273
f 266 273 267
f 267 273 274
f 267 274 268
f 268 274 275
f 268 275 269
f 269 275 276
f 269 276 270
f 271 277 278
f 271 278 272
f 272 278 279
f 272 279 273
f 273 279 280
f 273 280 274
f 274 280 281
f 274 281 275
f 275 281 282
f 275 282 276
f 277 283 284
f 277 284 278
f 278 284 285
f 278 285 279
f 279 285 286
f 279 286 280
f 280 286 287
f 280 287 281
f 281 287 288
f 281 288 282
f 283 289 290
f 283 290 284
f 284 290 291
f 284 291 285
f 285 291 292
f 285 292 286
f 286 292 293
f 286 293 287
f 287 293 294
f 287 294 288
f 289 295 296
f 289 296 290
f 290 296 297
f 290 297 291
f 291 297 298
f 291 298 292
f 292 298 299
f 292 299 293
f 293 299 300
f 293 300 294
f 295 301 302
f 295 302 296
f 296 302 303
f 296 303 297
f 297 303 304
f 297 304 298
f 298 304 305
f 298 305 299
f 299 305 306
f 299 306 300
f 301 307 308
f 301 308 302
f 302 308 309
f 302 309 303
f 303 309 310
f 303 310 304
f 304 310 311
f 304 311 305
f 305 311 312
f 305 312 306
f 307 313 314
f 307 314 308
f 308 314 315
f 308 315 309
f 309 315 316
f 309 316 310
f 310 316 317
f 310 317 311
f 311 317 318
f 311 318 312
f 313 319 320
f 313 320 314
f 314 320 321
f 314 321 315
f 315 321 322
f 315 322 316
f 316 322 323
f 316 323 317
f 317 323 324
f 317 324 318
f 319 325 326
f 319 326 320
f 320 326 327
f 320 327 321
f 321 327 328
f 321 328 322
f 322 328 329
f 322 329 323
f 323 329 330
f 323 330 324
f 325 331 332
f 325 332 326
f 326 332 333
f 326 333 327
f 327 333 334
f 327 334 328
f 328 334 335
f 328 335 329
f 329 335 336
f 329 336 330
f 331 337 338
f 331 338 332
f 332 338 339
f 332 339 333
f 333 339 340
f 333 340 334
f 334 340 341
f 334 341 335
f 335 341 342
f 335 342 336
f 337 343 344
f 337 344 338
f 338 344 345
f 338 345 339
f 339 345 346
f 339 346 340
f 340 346 347
f 340 347 341
f 341 347 348
f 341 348 342
f 343 349 350
f 343 350 344
f 344 350 351
f 344 351 345
f 345 351 352
f 345 352 346
f 346 352 353
f 346 353 347
f 347 353 354
f 347 354 348
f 349 355 356
f 349 356 350
f 350 356 357
f 350 357 351
f 351 357 358
f 351 358 352
f 352 358 359
f 352 359 353
f 353 359 360
f 353 360 354
f 355 361 362
f 355 362 356
f 356 362 363
f 356 363 357
f 357 363 364
f 357 364 358
f 358 364 365
f 358 365 359
f 359 365 366
f 359 366 360
f 361 367 368
f 361 368 362
f 362 368 369
f 362 369 363
f 363 369 370
f 363 370 364
f 364 370 371
f 364 371 365
f 365 371 372
f 365 372 366
f 367 373 374
f 367 374 368
f 368 374 375
f 368 375 369
f 369 375 376
f 369 376 370
f 370 376 377
f 370 377 371
f 371 377 378
f 371 378 372
f 373 379 380
f 373 380 374
f 374 380 381
f 374 381 375
f 375 381 382
f 375 382 376
f 376 382 383
f 376 383 377
f 377 383 384
f 377 384 378
f 379 385 386
f 379 386 380
f 380 386 387
f 380 387 381
f 381 387 388
f 381 388 382
f 382 388 389
f 382 389 383
f 383 389 390
f 383 390 384
f 385 391 392
f 385 392 386
f 386 392 393
f 386 393 387
f 387 393 394
f 387 394 388
f 388 394 395
f 388 395 389
f 389 395 396
f 389 396 390
f 391 397 398
f 391 398 392
f 392 398 399
f 392 399 393
f 393 399 400
f 393 400 394
f 394 400 401
f 394 401 395
f 395 401 402
f 395 402 396
f 397 403 404
f 397 404 398
f 398 404 405
f 398 405 399
f 399 405 406
f 399 406 400
f 400 406 407
f 400 407 401
f 401 407 408
f 401 408 402
f 403 409 410
f 403 410 404
f 404 410 411
f 404 411 405
f 405 411 412
f 405 412 406
f 406 412 413
f 406 413 407
f 407 413 414
f 407 414 408
f 409 415 416
f 409 416 410
f 410 416 417
f 410 417 411
f 411 417 418
f 411 418 412
f 412 418 419
f 412 419 413
f 413 419 420
f 413 420 414
f 415 421 422
f 415 422 416
f 416 422 423
f 416 423 417
f 417 423 424
f 417 424 418
f 418 424 425
f 418 425 419
f 419 425 426
f 419 426 420
f 421 427 428
f 421 428 422
f 422 428 429
f 422 429 423
f 423 429 430
f 423 430 424
f 424 430 431
f 424 431 425
f 425 431 432
f 425 432 426
f 427 433 434
f 427 434 428
f 428 434 435
f 428 435 429
f 429 435 436
f 429 436 430
f 430 436 437
f 430 437 431
f 431 437 438
f 431 438 432
f 433 439 440
f 433 440 434
f 434 440 441
f 434 441 435
f 435 441 442
f 435 442 436
f 436 442 443
f 436 443 437
f 437 443 444
f 437 444 438
f 439 445 446
f 439 446 440
f 440 446 447
f 440 447 441
f 441 447 448
f 441 448 442
f 442 448 449
f 442 449 443
f 443 449 450
f 443 450 444
f 445 451 452
f 445 452 446
f 446 452 453
f 446 453 447
f 447 453 454
f 447 454 448
f 448 454 455
f 448 455 449
f 449 455 456
f 449 456 450
f 451 457 458
f 451 458 452
f 452 458 459
f 452 459 453
f 453 459 460
f 453 460 454
f 454 460 461
f 454 461 455
f 455 461 462
f 455 462 456
f 457 463 464
f 457 464 458
f 458 464 465
f 458 465 459
f 459 465 466
f 459 466 460
f 460 466 467
f 460 467 461
f 461 467 468
f 461 468 462
f 463 469 470
f 463 470 464
f 464 470 471
f 464 471 465
f 465 471 472
f 465 472 466
f 466 472 473
f 466 473 467
f 467 473 474
f 467 474 468
f 469 475 476
f 469 476 470
f 470 476 477
f 470 477 471
f 471 477 478
f 471 478 472
f 472 478 479
f 472 479 473
f 473 479 480
f 473 480 474
f 475 481 482
f 475 482 476
f 476 482 483
f 476 483 477
f 477 483 484
f 477 484 478
f 478 484 485
f 478 485 479
f 479 485 486
f 479 486 480
f 481 487 488
f 481 488 482
f 482 488 489
f 482 489 483
f 483 489 490
f 483 490 484
f 484 490 491
f 484 491 485
f 485 491 492
f 485 492 486
f 487 493 494
f 487 494 488
f 488 494 495
f 488 495 489
f 489 495 496
f 489 496 490
f 490 496 497
f 490 497 491
f 491 497 498
f 491 498 492
f 493 499 500
f 493 500 494
f 494 500 501
f 494 501 495
f 495 501 502
f 495 502 496
f 496 502 503
f 496 503 497
f 497 503 504
f 497 504 498
f 499 505 506
f 499 506 500
f 500 506 507
f 500 507 501
f 501 507 508
f 501 508 502
f 502 508 509
f 502 509 503
f 503 509 510
f 503 510 504
f 505 511 512
f 505 512 506
f 506 512 513
f 506 513 507
f 507 513 514
f 507 514 508
f 508 514 515
f 508 515 509
f 509 515 516
f 509 516 510
f 511 517 518
f 511 518 512
f 512 518 519
f 512 519 513
f 513 519 520
f 513 520 514
f 514 520 521
f 514 521 515
f 515 521 522
f 515 522 516
f 517 523 524
f 517 524 518
f 518 524 525
f 518 525 519
f 519 525 526
f 519 526 520
f 520 526 527
f 520 527 521
f 521 527 528
f 521 528 522
f 523 529 530
f 523 530 524
f 524 530 531
f 524 531 525
f 525 531 532
f 525 532 526
f 526 532 533
f 526 533 527
f 527 533 534
f 527 534 528
f 529 535 536
f 529 536 530
f 530 536 537
f 530 537 531
f 531 537 538
f 531 538 532
f 532 538 539
f 532 539 533
f 533 539 540
f 533 540 534
f 535 541 542
f 535 542 536
f 536 542 543
f 536 543 537
f 537 543 544
f 537 544 538
f 538 544 545
f 538 545 539
f 539 545 546
f 539 546 540
f 541 547 548
f 541 548 542
f 542 548 549
f 542 549 543
f 543 549 550
f 543 550 544
f 544 550 551
f 544 551 545
f 545 551 552
f 545 552 546
f 547 553 554
f 547 554 548
f 548 554 555
f 548 555 549
f 549 555 556
f 549 556 550
f 550 556 557
f 550 557 551
f 551 557 558
f 551 558 552
f 553 559 560
f 553 560 554
f 554 560 561
f 554 561 555
f 555 561 562
f 555 562 556
f 556 562 563
f 556 563 557
f 557 563 564
f 557 564 558
f 559 565 566
f 559 566 560
f 560 566 567
f 560 567 561
f 561 567 568
f 561 568 562
f 562 568 569
f 562 569 563
f 563 569 570
f 563 570 564
f 565 571 572
f 565 572 566
f 566 572 573
f 566 573 567
f 567 573 574
f 567 574 568
f 568 574 575
f 568 575 569
f 569 575 576
f 569 576 570
f 571 1 2
f 571 2 572
f 572 2 3
f 572 3 573
f 573 3 4
f 573 4 574
f 574 4 5
f 574 5 575
f 575 5 6
f 575 6 576
