# Medium-poly Staunton-style piece
v 0.0 0 0.0
v 0.5 0 0.0
v 0.6 0.4 0.0
v 0.45 1 0.0
v 0.7 1.2 0.0
v 0.0 1.5 0.0
v 0.0 0 0.0
v 0.49892946161930174 0 0.03270156461507153
v 0.5987153539431621 0.4 0.039241877538085834
v 0.44903651545737155 1 0.02943140815356438
v 0.6985012462670224 1.2 0.04578219046110014
v 0.0 1.5 0.0
v 0.0 0 0.0
v 0.4957224306869052 0 0.06526309611002579
v 0.5948669168242862 0.4 0.07831571533203094
v 0.4461501876182147 1 0.05873678649902321
v 0.6940114029616672 1.2 0.09136833455403609
v 0.0 1.5 0.0
v 0.0 0 0.0
v 0.4903926402016152 0 0.09754516100806412
v 0.5884711682419382 0.4 0.11705419320967694
v 0.4413533761814537 1 0.08779064490725771
v 0.6865496962822613 1.2 0.13656322541128976
v 0.0 1.5 0.0
v 0.0 0 0.0
v 0.48296291314453416 0 0.12940952255126037
v 0.579555495773441 0.4 0.15529142706151244
v 0.43466662183008076 1 0.11646857029613433
v 0.6761480784023478 1.2 0.18117333157176452
v 0.0 1.5 0.0
v 0.0 0 0.0
v 0.47346506474755284 0 0.1607197326515808
v 0.5681580776970634 0.4 0.19286367918189695
v 0.42611855827279754 1 0.14464775938642271
v 0.662851090646574 1.2 0.22500762571221308
v 0.0 1.5 0.0
v 0.0 0 0.0
v 0.46193976625564337 0 0.1913417161825449
v 0.5543277195067721 0.4 0.22961005941905385
v 0.415745789630079 1 0.1722075445642904
v 0.6467156727579007 1.2 0.26787840265556284
v 0.0 1.5 0.0
v 0.0 0 0.0
v 0.4484363707663442 0 0.22114434510950062
v 0.538123644919613 0.4 0.26537321413140075
v 0.40359273368970977 1 0.19902991059855057
v 0.6278109190728818 1.2 0.30960208315330084
v 0.0 1.5 0.0
v 0.0 0 0.0
v 0.43301270189221935 0 0.24999999999999997
v 0.5196152422706632 0.4 0.29999999999999993
v 0.38971143170299744 1 0.22499999999999998
v 0.6062177826491071 1.2 0.3499999999999999
v 0.0 1.5 0.0
v 0.0 0 0.0
v 0.4157348061512726 0 0.2777851165098011
v 0.4988817673815271 0.4 0.3333421398117613
v 0.37416132553614534 1 0.250006604858821
v 0.5820287286117817 1.2 0.3888991631137215
v 0.0 1.5 0.0
v 0.0 0 0.0
v 0.3966766701456176 0 0.30438071450436033
v 0.4760120041747411 0.4 0.3652568574052324
v 0.3570090031310558 1 0.2739426430539243
v 0.5553473382038646 1.2 0.42613300030610446
v 0.0 1.5 0.0
v 0.0 0 0.0
v 0.3759199037394887 0 0.3296729075500344
v 0.4511038844873864 0.4 0.3956074890600413
v 0.33832791336553986 1 0.296705616795031
v 0.5262878652352841 1.2 0.46154207057004815
v 0.0 1.5 0.0
v 0.0 0 0.0
v 0.3535533905932738 0 0.35355339059327373
v 0.4242640687119285 0.4 0.42426406871192845
v 0.3181980515339464 1 0.31819805153394637
v 0.4949747468305833 1.2 0.4949747468305832
v 0.0 1.5 0.0
v 0.0 0 0.0
v 0.3296729075500344 0 0.3759199037394887
v 0.3956074890600413 0.4 0.4511038844873864
v 0.296705616795031 1 0.33832791336553986
v 0.46154207057004815 1.2 0.5262878652352841
v 0.0 1.5 0.0
v 0.0 0 0.0
v 0.30438071450436033 0 0.3966766701456176
v 0.3652568574052324 0.4 0.4760120041747411
v 0.2739426430539243 1 0.3570090031310558
v 0.42613300030610446 1.2 0.5553473382038646
v 0.0 1.5 0.0
v 0.0 0 0.0
v 0.2777851165098012 0 0.41573480615127256
v 0.3333421398117614 0.4 0.49888176738152706
v 0.2500066048588211 1 0.37416132553614534
v 0.38889916311372164 1.2 0.5820287286117816
v 0.0 1.5 0.0
v 0.0 0 0.0
v 0.25000000000000006 0 0.4330127018922193
v 0.30000000000000004 0.4 0.5196152422706631
v 0.22500000000000006 1 0.3897114317029974
v 0.35000000000000003 1.2 0.606217782649107
v 0.0 1.5 0.0
v 0.0 0 0.0
v 0.22114434510950062 0 0.4484363707663442
v 0.26537321413140075 0.4 0.538123644919613
v 0.19902991059855057 1 0.40359273368970977
v 0.30960208315330084 1.2 0.6278109190728818
v 0.0 1.5 0.0
v 0.0 0 0.0
v 0.19134171618254492 0 0.46193976625564337
v 0.22961005941905388 0.4 0.5543277195067721
v 0.17220754456429044 1 0.415745789630079
v 0.26787840265556284 1.2 0.6467156727579007
v 0.0 1.5 0.0
v 0.0 0 0.0
v 0.16071973265158085 0 0.4734650647475528
v 0.192863679181897 0.4 0.5681580776970633
v 0.14464775938642277 1 0.42611855827279754
v 0.22500762571221317 1.2 0.6628510906465739
v 0.0 1.5 0.0
v 0.0 0 0.0
v 0.12940952255126037 0 0.48296291314453416
v 0.15529142706151244 0.4 0.579555495773441
v 0.11646857029613433 1 0.43466662183008076
v 0.18117333157176452 1.2 0.6761480784023478
v 0.0 1.5 0.0
v 0.0 0 0.0
v 0.09754516100806417 0 0.4903926402016152
v 0.117054193209677 0.4 0.5884711682419382
v 0.08779064490725776 1 0.4413533761814537
v 0.13656322541128982 1.2 0.6865496962822613
v 0.0 1.5 0.0
v 0.0 0 0.0
v 0.06526309611002586 0 0.4957224306869052
v 0.07831571533203102 0.4 0.5948669168242862
v 0.05873678649902327 1 0.4461501876182147
v 0.09136833455403619 1.2 0.6940114029616672
v 0.0 1.5 0.0
v 0.0 0 0.0
v 0.032701564615071635 0 0.49892946161930174
v 0.03924187753808596 0.4 0.5987153539431621
v 0.029431408153564473 1 0.44903651545737155
v 0.04578219046110028 1.2 0.6985012462670224
v 0.0 1.5 0.0
v 0.0 0 0.0
v 3.061616997868383e-17 0 0.5
v 3.6739403974420595e-17 0.4 0.6
v 2.7554552980815448e-17 1 0.45
v 4.286263797015736e-17 1.2 0.7
v 0.0 1.5 0.0
v -0.0 0 0.0
v -0.03270156461507157 0 0.49892946161930174
v -0.03924187753808588 0.4 0.5987153539431621
v -0.029431408153564417 1 0.44903651545737155
v -0.0457821904611002 1.2 0.6985012462670224
v -0.0 1.5 0.0
v -0.0 0 0.0
v -0.0652630961100258 0 0.4957224306869052
v -0.07831571533203095 0.4 0.5948669168242862
v -0.058736786499023225 1 0.4461501876182147
v -0.09136833455403612 1.2 0.6940114029616672
v -0.0 1.5 0.0
v -0.0 0 0.0
v -0.0975451610080641 0 0.4903926402016152
v -0.11705419320967692 0.4 0.5884711682419382
v -0.08779064490725769 1 0.4413533761814537
v -0.13656322541128973 1.2 0.6865496962822613
v -0.0 1.5 0.0
v -0.0 0 0.0
v -0.12940952255126031 0 0.48296291314453416
v -0.15529142706151236 0.4 0.579555495773441
v -0.11646857029613429 1 0.43466662183008076
v -0.18117333157176443 1.2 0.6761480784023478
v -0.0 1.5 0.0
v -0.0 0 0.0
v -0.1607197326515808 0 0.47346506474755284
v -0.19286367918189695 0.4 0.5681580776970634
v -0.14464775938642271 1 0.42611855827279754
v -0.22500762571221308 1.2 0.662851090646574
v -0.0 1.5 0.0
v -0.0 0 0.0
v -0.19134171618254475 0 0.4619397662556434
v -0.22961005941905369 0.4 0.5543277195067721
v -0.17220754456429027 1 0.4157457896300791
v -0.2678784026555626 1.2 0.6467156727579008
v -0.0 1.5 0.0
v -0.0 0 0.0
v -0.22114434510950057 0 0.4484363707663442
v -0.2653732141314007 0.4 0.538123644919613
v -0.19902991059855052 1 0.40359273368970977
v -0.3096020831533008 1.2 0.6278109190728818
v -0.0 1.5 0.0
v -0.0 0 0.0
v -0.2499999999999999 0 0.43301270189221935
v -0.2999999999999999 0.4 0.5196152422706632
v -0.2249999999999999 1 0.38971143170299744
v -0.3499999999999998 1.2 0.6062177826491071
v -0.0 1.5 0.0
v -0.0 0 0.0
v -0.27778511650980114 0 0.41573480615127256
v -0.33334213981176136 0.4 0.49888176738152706
v -0.25000660485882104 1 0.37416132553614534
v -0.3888991631137216 1.2 0.5820287286117816
v -0.0 1.5 0.0
v -0.0 0 0.0
v -0.30438071450436033 0 0.3966766701456176
v -0.3652568574052324 0.4 0.4760120041747411
v -0.2739426430539243 1 0.3570090031310558
v -0.42613300030610446 1.2 0.5553473382038646
v -0.0 1.5 0.0
v -0.0 0 0.0
v -0.3296729075500344 0 0.3759199037394887
v -0.3956074890600413 0.4 0.4511038844873864
v -0.296705616795031 1 0.33832791336553986
v -0.46154207057004815 1.2 0.5262878652352841
v -0.0 1.5 0.0
v -0.0 0 0.0
v -0.35355339059327373 0 0.3535533905932738
v -0.42426406871192845 0.4 0.4242640687119285
v -0.31819805153394637 1 0.3181980515339464
v -0.4949747468305832 1.2 0.4949747468305833
v -0.0 1.5 0.0
v -0.0 0 0.0
v -0.37591990373948864 0 0.3296729075500345
v -0.45110388448738636 0.4 0.39560748906004134
v -0.3383279133655398 1 0.29670561679503105
v -0.526287865235284 1.2 0.46154207057004826
v -0.0 1.5 0.0
v -0.0 0 0.0
v -0.3966766701456175 0 0.30438071450436044
v -0.476012004174741 0.4 0.3652568574052325
v -0.35700900313105577 1 0.2739426430539244
v -0.5553473382038645 1.2 0.42613300030610457
v -0.0 1.5 0.0
v -0.0 0 0.0
v -0.4157348061512725 0 0.27778511650980126
v -0.498881767381527 0.4 0.3333421398117615
v -0.3741613255361453 1 0.25000660485882115
v -0.5820287286117815 1.2 0.38889916311372175
v -0.0 1.5 0.0
v -0.0 0 0.0
v -0.43301270189221935 0 0.24999999999999997
v -0.5196152422706632 0.4 0.29999999999999993
v -0.38971143170299744 1 0.22499999999999998
v -0.6062177826491071 1.2 0.3499999999999999
v -0.0 1.5 0.0
v -0.0 0 0.0
v -0.4484363707663441 0 0.22114434510950085
v -0.5381236449196128 0.4 0.265373214131401
v -0.40359273368970966 1 0.19902991059855077
v -0.6278109190728817 1.2 0.3096020831533012
v -0.0 1.5 0.0
v -0.0 0 0.0
v -0.46193976625564337 0 0.19134171618254495
v -0.5543277195067721 0.4 0.22961005941905394
v -0.415745789630079 1 0.17220754456429047
v -0.6467156727579007 1.2 0.2678784026555629
v -0.0 1.5 0.0
v -0.0 0 0.0
v -0.4734650647475528 0 0.16071973265158088
v -0.5681580776970633 0.4 0.19286367918189704
v -0.42611855827279754 1 0.1446477593864228
v -0.6628510906465739 1.2 0.22500762571221322
v -0.0 1.5 0.0
v -0.0 0 0.0
v -0.4829629131445341 0 0.1294095225512605
v -0.5795554957734409 0.4 0.1552914270615126
v -0.4346666218300807 1 0.11646857029613446
v -0.6761480784023477 1.2 0.1811733315717647
v -0.0 1.5 0.0
v -0.0 0 0.0
v -0.4903926402016152 0 0.09754516100806408
v -0.5884711682419382 0.4 0.11705419320967689
v -0.4413533761814537 1 0.08779064490725767
v -0.6865496962822613 1.2 0.1365632254112897
v -0.0 1.5 0.0
v -0.0 0 0.0
v -0.4957224306869052 0 0.065263096110026
v -0.5948669168242862 0.4 0.07831571533203119
v -0.4461501876182147 1 0.0587367864990234
v -0.6940114029616672 1.2 0.09136833455403638
v -0.0 1.5 0.0
v -0.0 0 0.0
v -0.49892946161930174 0 0.03270156461507156
v -0.5987153539431621 0.4 0.03924187753808587
v -0.44903651545737155 1 0.029431408153564403
v -0.6985012462670224 1.2 0.04578219046110018
v -0.0 1.5 0.0
v -0.0 0 0.0
v -0.5 0 6.123233995736766e-17
v -0.6 0.4 7.347880794884119e-17
v -0.45 1 5.5109105961630896e-17
v -0.7 1.2 8.572527594031472e-17
v -0.0 1.5 0.0
v -0.0 0 -0.0
v -0.49892946161930174 0 -0.032701564615071434
v -0.5987153539431621 0.4 -0.039241877538085716
v -0.44903651545737155 1 -0.029431408153564292
v -0.6985012462670224 1.2 -0.045782190461100006
v -0.0 1.5 -0.0
v -0.0 0 -0.0
v -0.4957224306869052 0 -0.06526309611002588
v -0.5948669168242862 0.4 -0.07831571533203106
v -0.4461501876182147 1 -0.058736786499023294
v -0.6940114029616672 1.2 -0.09136833455403623
v -0.0 1.5 -0.0
v -0.0 0 -0.0
v -0.49039264020161527 0 -0.09754516100806396
v -0.5884711682419383 0.4 -0.11705419320967675
v -0.44135337618145376 1 -0.08779064490725756
v -0.6865496962822614 1.2 -0.13656322541128954
v -0.0 1.5 -0.0
v -0.0 0 -0.0
v -0.48296291314453416 0 -0.1294095225512604
v -0.579555495773441 0.4 -0.15529142706151247
v -0.43466662183008076 1 -0.11646857029613436
v -0.6761480784023478 1.2 -0.18117333157176455
v -0.0 1.5 -0.0
v -0.0 0 -0.0
v -0.47346506474755284 0 -0.16071973265158077
v -0.5681580776970634 0.4 -0.19286367918189692
v -0.42611855827279754 1 -0.1446477593864227
v -0.662851090646574 1.2 -0.22500762571221306
v -0.0 1.5 -0.0
v -0.0 0 -0.0
v -0.4619397662556434 0 -0.19134171618254484
v -0.5543277195067721 0.4 -0.2296100594190538
v -0.4157457896300791 1 -0.17220754456429035
v -0.6467156727579008 1.2 -0.26787840265556273
v -0.0 1.5 -0.0
v -0.0 0 -0.0
v -0.44843637076634413 0 -0.22114434510950073
v -0.538123644919613 0.4 -0.26537321413140086
v -0.4035927336897097 1 -0.19902991059855066
v -0.6278109190728818 1.2 -0.309602083153301
v -0.0 1.5 -0.0
v -0.0 0 -0.0
v -0.4330127018922194 0 -0.24999999999999986
v -0.5196152422706632 0.4 -0.2999999999999998
v -0.3897114317029975 1 -0.22499999999999987
v -0.6062177826491071 1.2 -0.3499999999999998
v -0.0 1.5 -0.0
v -0.0 0 -0.0
v -0.41573480615127273 0 -0.277785116509801
v -0.49888176738152723 0.4 -0.33334213981176114
v -0.37416132553614545 1 -0.25000660485882087
v -0.5820287286117818 1.2 -0.38889916311372136
v -0.0 1.5 -0.0
v -0.0 0 -0.0
v -0.3966766701456176 0 -0.30438071450436033
v -0.4760120041747411 0.4 -0.3652568574052324
v -0.3570090031310558 1 -0.2739426430539243
v -0.5553473382038646 1.2 -0.42613300030610446
v -0.0 1.5 -0.0
v -0.0 0 -0.0
v -0.37591990373948875 0 -0.3296729075500344
v -0.4511038844873865 0.4 -0.3956074890600413
v -0.33832791336553986 1 -0.296705616795031
v -0.5262878652352843 1.2 -0.46154207057004815
v -0.0 1.5 -0.0
v -0.0 0 -0.0
v -0.35355339059327395 0 -0.35355339059327356
v -0.42426406871192873 0.4 -0.4242640687119283
v -0.3181980515339466 1 -0.3181980515339462
v -0.4949747468305835 1.2 -0.49497474683058296
v -0.0 1.5 -0.0
v -0.0 0 -0.0
v -0.32967290755003453 0 -0.37591990373948864
v -0.39560748906004145 0.4 -0.45110388448738636
v -0.2967056167950311 1 -0.3383279133655398
v -0.4615420705700483 1.2 -0.526287865235284
v -0.0 1.5 -0.0
v -0.0 0 -0.0
v -0.30438071450436044 0 -0.39667667014561747
v -0.3652568574052325 0.4 -0.47601200417474093
v -0.2739426430539244 1 -0.3570090031310557
v -0.42613300030610457 1.2 -0.5553473382038644
v -0.0 1.5 -0.0
v -0.0 0 -0.0
v -0.2777851165098011 0 -0.4157348061512726
v -0.3333421398117613 0.4 -0.4988817673815271
v -0.250006604858821 1 -0.37416132553614534
v -0.3888991631137215 1.2 -0.5820287286117817
v -0.0 1.5 -0.0
v -0.0 0 -0.0
v -0.2500000000000002 0 -0.4330127018922192
v -0.30000000000000027 0.4 -0.519615242270663
v -0.2250000000000002 1 -0.38971143170299727
v -0.3500000000000003 1.2 -0.6062177826491069
v -0.0 1.5 -0.0
v -0.0 0 -0.0
v -0.22114434510950068 0 -0.44843637076634413
v -0.2653732141314008 0.4 -0.538123644919613
v -0.1990299105985506 1 -0.4035927336897097
v -0.30960208315330096 1.2 -0.6278109190728818
v -0.0 1.5 -0.0
v -0.0 0 -0.0
v -0.19134171618254475 0 -0.4619397662556434
v -0.22961005941905369 0.4 -0.5543277195067721
v -0.17220754456429027 1 -0.4157457896300791
v -0.2678784026555626 1.2 -0.6467156727579008
v -0.0 1.5 -0.0
v -0.0 0 -0.0
v -0.1607197326515809 0 -0.4734650647475528
v -0.1928636791818971 0.4 -0.5681580776970633
v -0.14464775938642283 1 -0.42611855827279754
v -0.22500762571221325 1.2 -0.6628510906465739
v -0.0 1.5 -0.0
v -0.0 0 -0.0
v -0.12940952255126031 0 -0.48296291314453416
v -0.15529142706151236 0.4 -0.579555495773441
v -0.11646857029613429 1 -0.43466662183008076
v -0.18117333157176443 1.2 -0.6761480784023478
v -0.0 1.5 -0.0
v -0.0 0 -0.0
v -0.09754516100806433 0 -0.49039264020161516
v -0.1170541932096772 0.4 -0.5884711682419381
v -0.0877906449072579 1 -0.44135337618145365
v -0.13656322541129007 1.2 -0.6865496962822611
v -0.0 1.5 -0.0
v -0.0 0 -0.0
v -0.06526309611002581 0 -0.4957224306869052
v -0.07831571533203098 0.4 -0.5948669168242862
v -0.05873678649902323 1 -0.4461501876182147
v -0.09136833455403613 1.2 -0.6940114029616672
v -0.0 1.5 -0.0
v -0.0 0 -0.0
v -0.032701564615071364 0 -0.49892946161930174
v -0.03924187753808563 0.4 -0.5987153539431621
v -0.02943140815356423 1 -0.44903651545737155
v -0.04578219046109991 1.2 -0.6985012462670224
v -0.0 1.5 -0.0
v -0.0 0 -0.0
v -9.184850993605148e-17 0 -0.5
v -1.1021821192326178e-16 0.4 -0.6
v -8.266365894244634e-17 1 -0.45
v -1.2858791391047207e-16 1.2 -0.7
v -0.0 1.5 -0.0
v 0.0 0 -0.0
v 0.032701564615071184 0 -0.4989294616193018
v 0.03924187753808542 0.4 -0.5987153539431621
v 0.029431408153564067 1 -0.4490365154573716
v 0.04578219046109965 1.2 -0.6985012462670225
v 0.0 1.5 -0.0
v 0.0 0 -0.0
v 0.06526309611002563 0 -0.49572243068690525
v 0.07831571533203076 0.4 -0.5948669168242863
v 0.05873678649902307 1 -0.44615018761821473
v 0.09136833455403588 1.2 -0.6940114029616673
v 0.0 1.5 -0.0
v 0.0 0 -0.0
v 0.09754516100806415 0 -0.4903926402016152
v 0.11705419320967697 0.4 -0.5884711682419382
v 0.08779064490725774 1 -0.4413533761814537
v 0.1365632254112898 1.2 -0.6865496962822613
v 0.0 1.5 -0.0
v 0.0 0 -0.0
v 0.12940952255126015 0 -0.4829629131445342
v 0.15529142706151217 0.4 -0.579555495773441
v 0.11646857029613414 1 -0.4346666218300808
v 0.18117333157176418 1.2 -0.6761480784023478
v 0.0 1.5 -0.0
v 0.0 0 -0.0
v 0.16071973265158074 0 -0.47346506474755284
v 0.19286367918189687 0.4 -0.5681580776970634
v 0.14464775938642266 1 -0.42611855827279754
v 0.22500762571221303 1.2 -0.662851090646574
v 0.0 1.5 -0.0
v 0.0 0 -0.0
v 0.19134171618254459 0 -0.4619397662556435
v 0.2296100594190535 0.4 -0.5543277195067722
v 0.17220754456429013 1 -0.41574578963007913
v 0.2678784026555624 1.2 -0.6467156727579009
v 0.0 1.5 -0.0
v 0.0 0 -0.0
v 0.2211443451095005 0 -0.44843637076634424
v 0.2653732141314006 0.4 -0.5381236449196131
v 0.19902991059855046 1 -0.4035927336897098
v 0.3096020831533007 1.2 -0.6278109190728819
v 0.0 1.5 -0.0
v 0.0 0 -0.0
v 0.25000000000000006 0 -0.4330127018922193
v 0.30000000000000004 0.4 -0.5196152422706631
v 0.22500000000000006 1 -0.3897114317029974
v 0.35000000000000003 1.2 -0.606217782649107
v 0.0 1.5 -0.0
v 0.0 0 -0.0
v 0.2777851165098009 0 -0.41573480615127273
v 0.3333421398117611 0.4 -0.49888176738152723
v 0.2500066048588208 1 -0.37416132553614545
v 0.38889916311372125 1.2 -0.5820287286117818
v 0.0 1.5 -0.0
v 0.0 0 -0.0
v 0.30438071450435994 0 -0.39667667014561786
v 0.3652568574052319 0.4 -0.47601200417474143
v 0.27394264305392396 1 -0.3570090031310561
v 0.4261330003061039 1.2 -0.555347338203865
v 0.0 1.5 -0.0
v 0.0 0 -0.0
v 0.32967290755003453 0 -0.3759199037394886
v 0.39560748906004145 0.4 -0.45110388448738625
v 0.2967056167950311 1 -0.33832791336553975
v 0.4615420705700483 1.2 -0.5262878652352839
v 0.0 1.5 -0.0
v 0.0 0 -0.0
v 0.3535533905932737 0 -0.35355339059327384
v 0.4242640687119284 0.4 -0.4242640687119286
v 0.3181980515339463 1 -0.3181980515339465
v 0.4949747468305831 1.2 -0.49497474683058335
v 0.0 1.5 -0.0
v 0.0 0 -0.0
v 0.37591990373948875 0 -0.32967290755003437
v 0.4511038844873865 0.4 -0.39560748906004123
v 0.33832791336553986 1 -0.29670561679503094
v 0.5262878652352843 1.2 -0.4615420705700481
v 0.0 1.5 -0.0
v 0.0 0 -0.0
v 0.39667667014561747 0 -0.30438071450436044
v 0.47601200417474093 0.4 -0.3652568574052325
v 0.3570090031310557 1 -0.2739426430539244
v 0.5553473382038644 1.2 -0.42613300030610457
v 0.0 1.5 -0.0
v 0.0 0 -0.0
v 0.4157348061512724 0 -0.2777851165098015
v 0.49888176738152684 0.4 -0.33334213981176175
v 0.3741613255361452 1 -0.2500066048588213
v 0.5820287286117813 1.2 -0.388899163113722
v 0.0 1.5 -0.0
v 0.0 0 -0.0
v 0.4330127018922192 0 -0.2500000000000002
v 0.519615242270663 0.4 -0.30000000000000027
v 0.38971143170299727 1 -0.2250000000000002
v 0.6062177826491069 1.2 -0.3500000000000003
v 0.0 1.5 -0.0
v 0.0 0 -0.0
v 0.44843637076634413 0 -0.2211443451095007
v 0.538123644919613 0.4 -0.26537321413140086
v 0.4035927336897097 1 -0.19902991059855063
v 0.6278109190728818 1.2 -0.30960208315330096
v 0.0 1.5 -0.0
v 0.0 0 -0.0
v 0.4619397662556434 0 -0.19134171618254478
v 0.5543277195067721 0.4 -0.2296100594190537
v 0.4157457896300791 1 -0.1722075445642903
v 0.6467156727579008 1.2 -0.2678784026555627
v 0.0 1.5 -0.0
v 0.0 0 -0.0
v 0.4734650647475528 0 -0.16071973265158093
v 0.5681580776970633 0.4 -0.19286367918189712
v 0.42611855827279754 1 -0.14464775938642285
v 0.6628510906465739 1.2 -0.22500762571221328
v 0.0 1.5 -0.0
v 0.0 0 -0.0
v 0.48296291314453405 0 -0.12940952255126079
v 0.5795554957734408 0.4 -0.15529142706151294
v 0.43466662183008065 1 -0.11646857029613471
v 0.6761480784023476 1.2 -0.1811733315717651
v 0.0 1.5 -0.0
v 0.0 0 -0.0
v 0.49039264020161516 0 -0.09754516100806436
v 0.5884711682419381 0.4 -0.11705419320967722
v 0.44135337618145365 1 -0.08779064490725792
v 0.6865496962822611 1.2 -0.1365632254112901
v 0.0 1.5 -0.0
v 0.0 0 -0.0
v 0.4957224306869052 0 -0.06526309611002584
v 0.5948669168242862 0.4 -0.07831571533203101
v 0.4461501876182147 1 -0.05873678649902326
v 0.6940114029616672 1.2 -0.09136833455403617
v 0.0 1.5 -0.0
v 0.0 0 -0.0
v 0.49892946161930174 0 -0.0327015646150714
v 0.5987153539431621 0.4 -0.039241877538085675
v 0.44903651545737155 1 -0.02943140815356426
v 0.6985012462670224 1.2 -0.04578219046109996
v 0.0 1.5 -0.0
f 1 7 8
f 1 8 2
f 2 8 9
f 2 9 3
f 3 9 10
f 3 10 4
f 4 10 11
f 4 11 5
f 5 11 12
f 5 12 6
f 7 13 14
f 7 14 8
f 8 14 15
f 8 15 9
f 9 15 16
f 9 16 10
f 10 16 17
f 10 17 11
f 11 17 18
f 11 18 12
f 13 19 20
f 13 20 14
f 14 20 21
f 14 21 15
f 15 21 22
f 15 22 16
f 16 22 23
f 16 23 17
f 17 23 24
f 17 24 18
f 19 25 26
f 19 26 20
f 20 26 27
f 20 27 21
f 21 27 28
f 21 28 22
f 22 28 29
f 22 29 23
f 23 29 30
f 23 30 24
f 25 31 32
f 25 32 26
f 26 32 33
f 26 33 27
f 27 33 34
f 27 34 28
f 28 34 35
f 28 35 29
f 29 35 36
f 29 36 30
f 31 37 38
f 31 38 32
f 32 38 39
f 32 39 33
f 33 39 40
f 33 40 34
f 34 40 41
f 34 41 35
f 35 41 42
f 35 42 36
f 37 43 44
f 37 44 38
f 38 44 45
f 38 45 39
f 39 45 46
f 39 46 40
f 40 46 47
f 40 47 41
f 41 47 48
f 41 48 42
f 43 49 50
f 43 50 44
f 44 50 51
f 44 51 45
f 45 51 52
f 45 52 46
f 46 52 53
f 46 53 47
f 47 53 54
f 47 54 48
f 49 55 56
f 49 56 50
f 50 56 57
f 50 57 51
f 51 57 58
f 51 58 52
f 52 58 59
f 52 59 53
f 53 59 60
f 53 60 54
f 55 61 62
f 55 62 56
f 56 62 63
f 56 63 57
f 57 63 64
f 57 64 58
f 58 64 65
f 58 65 59
f 59 65 66
f 59 66 60
f 61 67 68
f 61 68 62
f 62 68 69
f 62 69 63
f 63 69 70
f 63 70 64
f 64 70 71
f 64 71 65
f 65 71 72
f 65 72 66
f 67 73 74
f 67 74 68
f 68 74 75
f 68 75 69
f 69 75 76
f 69 76 70
f 70 76 77
f 70 77 71
f 71 77 78
f 71 78 72
f 73 79 80
f 73 80 74
f 74 80 81
f 74 81 75
f 75 81 82
f 75 82 76
f 76 82 83
f 76 83 77
f 77 83 84
f 77 84 78
f 79 85 86
f 79 86 80
f 80 86 87
f 80 87 81
f 81 87 88
f 81 88 82
f 82 88 89
f 82 89 83
f 83 89 90
f 83 90 84
f 85 91 92
f 85 92 86
f 86 92 93
f 86 93 87
f 87 93 94
f 87 94 88
f 88 94 95
f 88 95 89
f 89 95 96
f 89 96 90
f 91 97 98
f 91 98 92
f 92 98 99
f 92 99 93
f 93 99 100
f 93 100 94
f 94 100 101
f 94 101 95
f 95 101 102
f 95 102 96
f 97 103 104
f 97 104 98
f 98 104 105
f 98 105 99
f 99 105 106
f 99 106 100
f 100 106 107
f 100 107 101
f 101 107 108
f 101 108 102
f 103 109 110
f 103 110 104
f 104 110 111
f 104 111 105
f 105 111 112
f 105 112 106
f 106 112 113
f 106 113 107
f 107 113 114
f 107 114 108
f 109 115 116
f 109 116 110
f 110 116 117
f 110 117 111
f 111 117 118
f 111 118 112
f 112 118 119
f 112 119 113
f 113 119 120
f 113 120 114
f 115 121 122
f 115 122 116
f 116 122 123
f 116 123 117
f 117 123 124
f 117 124 118
f 118 124 125
f 118 125 119
f 119 125 126
f 119 126 120
f 121 127 128
f 121 128 122
f 122 128 129
f 122 129 123
f 123 129 130
f 123 130 124
f 124 130 131
f 124 131 125
f 125 131 132
f 125 132 126
f 127 133 134
f 127 134 128
f 128 134 135
f 128 135 129
f 129 135 136
f 129 136 130
f 130 136 137
f 130 137 131
f 131 137 138
f 131 138 132
f 133 139 140
f 133 140 134
f 134 140 141
f 134 141 135
f 135 141 142
f 135 142 136
f 136 142 143
f 136 143 137
f 137 143 144
f 137 144 138
f 139 145 146
f 139 146 140
f 140 146 147
f 140 147 141
f 141 147 148
f 141 148 142
f 142 148 149
f 142 149 143
f 143 149 150
f 143 150 144
f 145 151 152
f 145 152 146
f 146 152 153
f 146 153 147
f 147 153 154
f 147 154 148
f 148 154 155
f 148 155 149
f 149 155 156
f 149 156 150
f 151 157 158
f 151 158 152
f 152 158 159
f 152 159 153
f 153 159 160
f 153 160 154
f 154 160 161
f 154 161 155
f 155 161 162
f 155 162 156
f 157 163 164
f 157 164 158
f 158 164 165
f 158 165 159
f 159 165 166
f 159 166 160
f 160 166 167
f 160 167 161
f 161 167 168
f 161 168 162
f 163 169 170
f 163 170 164
f 164 170 171
f 164 171 165
f 165 171 172
f 165 172 166
f 166 172 173
f 166 173 167
f 167 173 174
f 167 174 168
f 169 175 176
f 169 176 170
f 170 176 177
f 170 177 171
f 171 177 178
f 171 178 172
f 172 178 179
f 172 179 173
f 173 179 180
f 173 180 174
f 175 181 182
f 175 182 176
f 176 182 183
f 176 183 177
f 177 183 184
f 177 184 178
f 178 184 185
f 178 185 179
f 179 185 186
f 179 186 180
f 181 187 188
f 181 188 182
f 182 188 189
f 182 189 183
f 183 189 190
f 183 190 184
f 184 190 191
f 184 191 185
f 185 191 192
f 185 192 186
f 187 193 194
f 187 194 188
f 188 194 195
f 188 195 189
f 189 195 196
f 189 196 190
f 190 196 197
f 190 197 191
f 191 197 198
f 191 198 192
f 193 199 200
f 193 200 194
f 194 200 201
f 194 201 195
f 195 201 202
f 195 202 196
f 196 202 203
f 196 203 197
f 197 203 204
f 197 204 198
f 199 205 206
f 199 206 200
f 200 206 207
f 200 207 201
f 201 207 208
f 201 208 202
f 202 208 209
f 202 209 203
f 203 209 210
f 203 210 204
f 205 211 212
f 205 212 206
f 206 212 213
f 206 213 207
f 207 213 214
f 207 214 208
f 208 214 215
f 208 215 209
f 209 215 216
f 209 216 210
f 211 217 218
f 211 218 212
f 212 218 219
f 212 219 213
f 213 219 220
f 213 220 214
f 214 220 221
f 214 221 215
f 215 221 222
f 215 222 216
f 217 223 224
f 217 224 218
f 218 224 225
f 218 225 219
f 219 225 226
f 219 226 220
f 220 226 227
f 220 227 221
f 221 227 228
f 221 228 222
f 223 229 230
f 223 230 224
f 224 230 231
f 224 231 225
f 225 231 232
f 225 232 226
f 226 232 233
f 226 233 227
f 227 233 234
f 227 234 228
f 229 235 236
f 229 236 230
f 230 236 237
f 230 237 231
f 231 237 238
f 231 238 232
f 232 238 239
f 232 239 233
f 233 239 240
f 233 240 234
f 235 241 242
f 235 242 236
f 236 242 243
f 236 243 237
f 237 243 244
f 237 244 238
f 238 244 245
f 238 245 239
f 239 245 246
f 239 246 240
f 241 247 248
f 241 248 242
f 242 248 249
f 242 249 243
f 243 249 250
f 243 250 244
f 244 250 251
f 244 251 245
f 245 251 252
f 245 252 246
f 247 253 254
f 247 254 248
f 248 254 255
f 248 255 249
f 249 255 256
f 249 256 250
f 250 256 257
f 250 257 251
f 251 257 258
f 251 258 252
f 253 259 260
f 253 260 254
f 254 260 261
f 254 261 255
f 255 261 262
f 255 262 256
f 256 262 263
f 256 263 257
f 257 263 264
f 257 264 258
f 259 265 266
f 259 266 260
f 260 266 267
f 260 267 261
f 261 267 268
f 261 268 262
f 262 268 269
f 262 269 263
f 263 269 270
f 263 270 264
f 265 271 272
f 265 272 266
f 266 272 273
f 266 273 267
f 267 273 274
f 267 274 268
f 268 274 275
f 268 275 269
f 269 275 276
f 269 276 270
f 271 277 278
f 271 278 272
f 272 278 279
f 272 279 273
f 273 279 280
f 273 280 274
f 274 280 281
f 274 281 275
f 275 281 282
f 275 282 276
f 277 283 284
f 277 284 278
f 278 284 285
f 278 285 279
f 279 285 286
f 279 286 280
f 280 286 287
f 280 287 281
f 281 287 288
f 281 288 282
f 283 289 290
f 283 290 284
f 284 290 291
f 284 291 285
f 285 291 292
f 285 292 286
f 286 292 293
f 286 293 287
f 287 293 294
f 287 294 288
f 289 295 296
f 289 296 290
f 290 296 297
f 290 297 291
f 291 297 298
f 291 298 292
f 292 298 299
f 292 299 293
f 293 299 300
f 293 300 294
f 295 301 302
f 295 302 296
f 296 302 303
f 296 303 297
f 297 303 304
f 297 304 298
f 298 304 305
f 298 305 299
f 299 305 306
f 299 306 300
f 301 307 308
f 301 308 302
f 302 308 309
f 302 309 303
f 303 309 310
f 303 310 304
f 304 310 311
f 304 311 305
f 305 311 312
f 305 312 306
f 307 313 314
f 307 314 308
f 308 314 315
f 308 315 309
f 309 315 316
f 309 316 310
f 310 316 317
f 310 317 311
f 311 317 318
f 311 318 312
f 313 319 320
f 313 320 314
f 314 320 321
f 314 321 315
f 315 321 322
f 315 322 316
f 316 322 323
f 316 323 317
f 317 323 324
f 317 324 318
f 319 325 326
f 319 326 320
f 320 326 327
f 320 327 321
f 321 327 328
f 321 328 322
f 322 328 329
f 322 329 323
f 323 329 330
f 323 330 324
f 325 331 332
f 325 332 326
f 326 332 333
f 326 333 327
f 327 333 334
f 327 334 328
f 328 334 335
f 328 335 329
f 329 335 336
f 329 336 330
f 331 337 338
f 331 338 332
f 332 338 339
f 332 339 333
f 333 339 340
f 333 340 334
f 334 340 341
f 334 341 335
f 335 341 342
f 335 342 336
f 337 343 344
f 337 344 338
f 338 344 345
f 338 345 339
f 339 345 346
f 339 346 340
f 340 346 347
f 340 347 341
f 341 347 348
f 341 348 342
f 343 349 350
f 343 350 344
f 344 350 351
f 344 351 345
f 345 351 352
f 345 352 346
f 346 352 353
f 346 353 347
f 347 353 354
f 347 354 348
f 349 355 356
f 349 356 350
f 350 356 357
f 350 357 351
f 351 357 358
f 351 358 352
f 352 358 359
f 352 359 353
f 353 359 360
f 353 360 354
f 355 361 362
f 355 362 356
f 356 362 363
f 356 363 357
f 357 363 364
f 357 364 358
f 358 364 365
f 358 365 359
f 359 365 366
f 359 366 360
f 361 367 368
f 361 368 362
f 362 368 369
f 362 369 363
f 363 369 370
f 363 370 364
f 364 370 371
f 364 371 365
f 365 371 372
f 365 372 366
f 367 373 374
f 367 374 368
f 368 374 375
f 368 375 369
f 369 375 376
f 369 376 370
f 370 376 377
f 370 377 371
f 371 377 378
f 371 378 372
f 373 379 380
f 373 380 374
f 374 380 381
f 374 381 375
f 375 381 382
f 375 382 376
f 376 382 383
f 376 383 377
f 377 383 384
f 377 384 378
f 379 385 386
f 379 386 380
f 380 386 387
f 380 387 381
f 381 387 388
f 381 388 382
f 382 388 389
f 382 389 383
f 383 389 390
f 383 390 384
f 385 391 392
f 385 392 386
f 386 392 393
f 386 393 387
f 387 393 394
f 387 394 388
f 388 394 395
f 388 395 389
f 389 395 396
f 389 396 390
f 391 397 398
f 391 398 392
f 392 398 399
f 392 399 393
f 393 399 400
f 393 400 394
f 394 400 401
f 394 401 395
f 395 401 402
f 395 402 396
f 397 403 404
f 397 404 398
f 398 404 405
f 398 405 399
f 399 405 406
f 399 406 400
f 400 406 407
f 400 407 401
f 401 407 408
f 401 408 402
f 403 409 410
f 403 410 404
f 404 410 411
f 404 411 405
f 405 411 412
f 405 412 406
f 406 412 413
f 406 413 407
f 407 413 414
f 407 414 408
f 409 415 416
f 409 416 410
f 410 416 417
f 410 417 411
f 411 417 418
f 411 418 412
f 412 418 419
f 412 419 413
f 413 419 420
f 413 420 414
f 415 421 422
f 415 422 416
f 416 422 423
f 416 423 417
f 417 423 424
f 417 424 418
f 418 424 425
f 418 425 419
f 419 425 426
f 419 426 420
f 421 427 428
f 421 428 422
f 422 428 429
f 422 429 423
f 423 429 430
f 423 430 424
f 424 430 431
f 424 431 425
f 425 431 432
f 425 432 426
f 427 433 434
f 427 434 428
f 428 434 435
f 428 435 429
f 429 435 436
f 429 436 430
f 430 436 437
f 430 437 431
f 431 437 438
f 431 438 432
f 433 439 440
f 433 440 434
f 434 440 441
f 434 441 435
f 435 441 442
f 435 442 436
f 436 442 443
f 436 443 437
f 437 443 444
f 437 444 438
f 439 445 446
f 439 446 440
f 440 446 447
f 440 447 441
f 441 447 448
f 441 448 442
f 442 448 449
f 442 449 443
f 443 449 450
f 443 450 444
f 445 451 452
f 445 452 446
f 446 452 453
f 446 453 447
f 447 453 454
f 447 454 448
f 448 454 455
f 448 455 449
f 449 455 456
f 449 456 450
f 451 457 458
f 451 458 452
f 452 458 459
f 452 459 453
f 453 459 460
f 453 460 454
f 454 460 461
f 454 461 455
f 455 461 462
f 455 462 456
f 457 463 464
f 457 464 458
f 458 464 465
f 458 465 459
f 459 465 466
f 459 466 460
f 460 466 467
f 460 467 461
f 461 467 468
f 461 468 462
f 463 469 470
f 463 470 464
f 464 470 471
f 464 471 465
f 465 471 472
f 465 472 466
f 466 472 473
f 466 473 467
f 467 473 474
f 467 474 468
f 469 475 476
f 469 476 470
f 470 476 477
f 470 477 471
f 471 477 478
f 471 478 472
f 472 478 479
f 472 479 473
f 473 479 480
f 473 480 474
f 475 481 482
f 475 482 476
f 476 482 483
f 476 483 477
f 477 483 484
f 477 484 478
f 478 484 485
f 478 485 479
f 479 485 486
f 479 486 480
f 481 487 488
f 481 488 482
f 482 488 489
f 482 489 483
f 483 489 490
f 483 490 484
f 484 490 491
f 484 491 485
f 485 491 492
f 485 492 486
f 487 493 494
f 487 494 488
f 488 494 495
f 488 495 489
f 489 495 496
f 489 496 490
f 490 496 497
f 490 497 491
f 491 497 498
f 491 498 492
f 493 499 500
f 493 500 494
f 494 500 501
f 494 501 495
f 495 501 502
f 495 502 496
f 496 502 503
f 496 503 497
f 497 503 504
f 497 504 498
f 499 505 506
f 499 506 500
f 500 506 507
f 500 507 501
f 501 507 508
f 501 508 502
f 502 508 509
f 502 509 503
f 503 509 510
f 503 510 504
f 505 511 512
f 505 512 506
f 506 512 513
f 506 513 507
f 507 513 514
f 507 514 508
f 508 514 515
f 508 515 509
f 509 515 516
f 509 516 510
f 511 517 518
f 511 518 512
f 512 518 519
f 512 519 513
f 513 519 520
f 513 520 514
f 514 520 521
f 514 521 515
f 515 521 522
f 515 522 516
f 517 523 524
f 517 524 518
f 518 524 525
f 518 525 519
f 519 525 526
f 519 526 520
f 520 526 527
f 520 527 521
f 521 527 528
f 521 528 522
f 523 529 530
f 523 530 524
f 524 530 531
f 524 531 525
f 525 531 532
f 525 532 526
f 526 532 533
f 526 533 527
f 527 533 534
f 527 534 528
f 529 535 536
f 529 536 530
f 530 536 537
f 530 537 531
f 531 537 538
f 531 538 532
f 532 538 539
f 532 539 533
f 533 539 540
f 533 540 534
f 535 541 542
f 535 542 536
f 536 542 543
f 536 543 537
f 537 543 544
f 537 544 538
f 538 544 545
f 538 545 539
f 539 545 546
f 539 546 540
f 541 547 548
f 541 548 542
f 542 548 549
f 542 549 543
f 543 549 550
f 543 550 544
f 544 550 551
f 544 551 545
f 545 551 552
f 545 552 546
f 547 553 554
f 547 554 548
f 548 554 555
f 548 555 549
f 549 555 556
f 549 556 550
f 550 556 557
f 550 557 551
f 551 557 558
f 551 558 552
f 553 559 560
f 553 560 554
f 554 560 561
f 554 561 555
f 555 561 562
f 555 562 556
f 556 562 563
f 556 563 557
f 557 563 564
f 557 564 558
f 559 565 566
f 559 566 560
f 560 566 567
f 560 567 561
f 561 567 568
f 561 568 562
f 562 568 569
f 562 569 563
f 563 569 570
f 563 570 564
f 565 571 572
f 565 572 566
f 566 572 573
f 566 573 567
f 567 573 574
f 567 574 568
f 568 574 575
f 568 575 569
f 569 575 576
f 569 576 570
f 571 1 2
f 571 2 572
f 572 2 3
f 572 3 573
f 573 3 4
f 573 4 574
f 574 4 5
f 574 5 575
f 575 5 6
f 575 6 576
